<svg id="alert" xmlns="http://www.w3.org/2000/svg" width="17.733" height="20.383" viewBox="0 0 17.733 20.383">
  <path id="alert-2" data-name="alert" d="M144.184,72.04a7.417,7.417,0,0,1,7.508,7.322V84.71a.744.744,0,0,1-.753.734H137.429a.744.744,0,0,1-.753-.734V79.362A7.417,7.417,0,0,1,144.184,72.04ZM143.525,68h1.318a.186.186,0,0,1,.188.184v2.2a.186.186,0,0,1-.188.184h-1.318a.186.186,0,0,1-.188-.184v-2.2A.186.186,0,0,1,143.525,68Zm-7.219,2.838a.192.192,0,0,1,.266,0l1.6,1.558a.18.18,0,0,1,0,.26l-.932.909a.192.192,0,0,1-.266,0l-1.6-1.558a.18.18,0,0,1,0-.26l.932-.909Zm15.759,0,.932.909a.18.18,0,0,1,0,.259l-1.6,1.559a.192.192,0,0,1-.266,0l-.932-.909a.18.18,0,0,1,0-.26l1.6-1.558A.192.192,0,0,1,152.065,70.838ZM136.653,86.914h15.062a.744.744,0,0,1,.753.735V88.2a.186.186,0,0,1-.188.184H136.088a.186.186,0,0,1-.188-.184v-.551A.744.744,0,0,1,136.653,86.914Zm3.483-7.276v5.807h1.506V79.637Z" transform="translate(-135.319 -68)" fill="#fff"/>
</svg>
