<svg xmlns="http://www.w3.org/2000/svg" width="23" height="23" viewBox="0 0 23 23">
  <g id="Group_799" data-name="Group 799" transform="translate(-1069 -167.876)">
    <rect id="Rectangle_2" data-name="Rectangle 2" width="23" height="23" rx="4" transform="translate(1069 167.876)" fill="#29659a"/>
    <path id="Icon_awesome-car-alt" data-name="Icon awesome-car-alt" d="M1.374,9.432,1.748,8.5l.663-1.657A3.706,3.706,0,0,1,5.868,4.5h4.223a3.706,3.706,0,0,1,3.457,2.341L14.211,8.5l.374.934a2.123,2.123,0,0,1,1.374,1.984v1.6a2.111,2.111,0,0,1-.532,1.394v1.8a1.064,1.064,0,0,1-1.064,1.064H13.3A1.064,1.064,0,0,1,12.235,16.2V15.139H3.724V16.2A1.064,1.064,0,0,1,2.66,17.267H1.6A1.064,1.064,0,0,1,.532,16.2v-1.8A2.109,2.109,0,0,1,0,13.012v-1.6A2.123,2.123,0,0,1,1.374,9.432Zm10.2-1.8a1.6,1.6,0,0,0-1.482-1H5.868a1.6,1.6,0,0,0-1.482,1L3.724,9.288h8.512l-.663-1.657ZM13.3,13a1.061,1.061,0,1,0,0-2.121,2.047,2.047,0,0,0-1.6,1.591C11.7,13.111,12.661,13,13.3,13ZM2.66,13c.638,0,1.6.106,1.6-.53a2.047,2.047,0,0,0-1.6-1.591A1.061,1.061,0,1,0,2.66,13Z" transform="translate(1072.458 168.554)" fill="#fff"/>
  </g>
</svg>
