<svg xmlns="http://www.w3.org/2000/svg" width="254.19" height="92" viewBox="0 0 254.19 92">
  <g id="Group_935" data-name="Group 935" transform="translate(-964.81 -155)">
    <g id="Group_918" data-name="Group 918" transform="translate(-297.139 131.182)">
      <path id="Path_317" data-name="Path 317" d="M118.05,262.395H109v9.691h9.174c3.221,0,4.647-2.058,4.647-4.66C122.821,264.7,121.272,262.395,118.05,262.395Z" transform="translate(1175.4 -221.362)" fill="#396d87"/>
      <g id="Group_917" data-name="Group 917" transform="translate(1261.948 23.818)">
        <g id="Group_916" data-name="Group 916" transform="translate(0)">
          <path id="Path_176" data-name="Path 176" d="M210.413,229.7H202.7V275.59h-9.885V261.469H179.4v23.3H361.923a9.532,9.532,0,0,0,9.532-9.532v-36.01a9.532,9.532,0,0,0-9.532-9.532Zm83.917,9.07h28.243v8.69H294.33Zm-65.722,37.477c-11.926,0-20.259-6.927-20.259-19.114,0-11.979,8.333-19.114,20.259-19.114,11.979,0,20.26,6.979,20.26,19.114C248.868,269.316,240.587,276.242,228.608,276.242Zm41.246-.543H254.137V252.344h9.777v14.122h5.94c6.562,0,8.854-4.818,8.854-9.818s-2.552-9.192-8.854-9.192H254.137v-8.69h15.717c12.864,0,19.062,8.155,19.062,18.206S282.926,275.7,269.854,275.7Zm53.805,0H294.33V252.887h27.7v8.69H304.106v4.888h19.553Zm19.521.7c-6.562.052-11.25-1.093-16.3-6.405l5.677-6.511a14.627,14.627,0,0,0,10.677,4.115c3.385,0,5.729-1.2,5.729-3.229,0-1.823-2.083-2.968-6.094-3.333-7.969-.729-14.843-2.76-14.843-11.823,0-7.708,7.552-11.042,15.26-11.042,5.469,0,9.739,1.25,13.646,4.323l-5.1,6.51a13.644,13.644,0,0,0-8.542-2.5c-2.5,0-4.948.782-4.948,2.709,0,2.5,2.448,2.864,6.042,3.229,7.239.781,14.791,3.7,14.791,12.083C359.17,272.8,351.357,276.346,343.181,276.4Z" transform="translate(-117.265 -229.695)" fill="#777"/>
          <path id="Path_177" data-name="Path 177" d="M127.137,253h13.416V229.7H74.533A9.532,9.532,0,0,0,65,239.227v36.01a9.532,9.532,0,0,0,9.532,9.532h42.012v-45.9h10.591Zm-14.883,22.7H101.09L92.6,263.75H88.9V275.7H78.579V238.765H96.507c9.322,0,14.166,6.057,14.166,12.619,0,4.479-1.658,8.315-7.8,11.023l9.383,12.325Z" transform="translate(-65.001 -229.695)" fill="#29659a"/>
        </g>
        <path id="Path_318" data-name="Path 318" d="M7.759,0a7.967,7.967,0,0,1,7.759,8.159,7.967,7.967,0,0,1-7.759,8.159A7.967,7.967,0,0,1,0,8.159,7.967,7.967,0,0,1,7.759,0Z" transform="translate(103.638 19.377)" fill="#777"/>
        <g id="Group_896" data-name="Group 896" transform="translate(120.606 54.625)">
          <text id="Claims" transform="translate(126.193 30.375)" fill="#29659a" font-size="34" font-family="Dancetech-Bold, Dancetech" font-weight="700" letter-spacing="0.052em"><tspan x="-123" y="0">CLAIMS</tspan></text>
        </g>
      </g>
    </g>
  </g>
</svg>
