<svg xmlns="http://www.w3.org/2000/svg" width="23.187" height="20.611" viewBox="0 0 22.187 20.611"><defs><style>.a{fill:#fff;}</style></defs><path class="a" d="M11.593,4.629,2.8,12.386a1.863,1.863,0,0,1-.22.135v7.445a.644.644,0,0,0,.644.644H19.966a.644.644,0,0,0,.644-.644V12.523a1.878,1.878,0,0,1-.212-.129Zm3.864,10.506a.322.322,0,0,1-.322.322H12.881v2.254a.322.322,0,0,1-.322.322H10.627a.322.322,0,0,1-.322-.322V15.458H8.051a.322.322,0,0,1-.322-.322V13.2a.322.322,0,0,1,.322-.322H10.3V10.627a.322.322,0,0,1,.322-.322h1.932a.322.322,0,0,1,.322.322v2.254h2.254a.322.322,0,0,1,.322.322Zm7.515-5.624L12.67.414a1.6,1.6,0,0,0-2.152,0L.213,9.511a.644.644,0,0,0-.049.91l.862.959a.644.644,0,0,0,.91.049l9.231-8.143a.644.644,0,0,1,.852,0l9.231,8.142a.644.644,0,0,0,.91-.049l.861-.959a.644.644,0,0,0-.049-.909Z"/></svg>