<svg xmlns="http://www.w3.org/2000/svg" width="12.255" height="15.273" viewBox="0 0 12.255 15.273">
  <path id="Path_328" data-name="Path 328" d="M13.029,0h-9.8V1.273h9.8Zm-9.8,15.273h9.8V14h-9.8Zm9.8-12.728h-9.8A1.253,1.253,0,0,0,2,3.818v7.637a1.253,1.253,0,0,0,1.225,1.273h9.8a1.253,1.253,0,0,0,1.225-1.273V3.818A1.253,1.253,0,0,0,13.029,2.546ZM8.127,4.3A1.433,1.433,0,1,1,6.749,5.727,1.408,1.408,0,0,1,8.127,4.3Zm3.064,6.523H5.064V9.864c0-1.063,2.04-1.591,3.064-1.591s3.064.528,3.064,1.591Z" transform="translate(-2)" fill="#595959"/>
</svg>
