<svg xmlns="http://www.w3.org/2000/svg" width="13" height="11.168" viewBox="0 0 13 11.168"><defs><style>.a{fill:#c7c7c7;}</style></defs><g transform="translate(0 -6.952)"><g transform="translate(0 6.952)"><circle class="a" cx="1.357" cy="1.357" r="1.357" transform="translate(5.143 4.784)"/><path class="a" d="M34.668,64.556H33.517a1.739,1.739,0,0,0-1.737,1.737V67.7l0,.022.1.03a7.906,7.906,0,0,0,2.362.381,4.854,4.854,0,0,0,2.062-.387l.091-.046H36.4V66.293A1.738,1.738,0,0,0,34.668,64.556Z" transform="translate(-27.593 -56.966)"/><circle class="a" cx="2.189" cy="2.189" r="2.189" transform="translate(1.542 0)"/><path class="a" d="M55.928,11.329A2.189,2.189,0,1,0,53.74,9.14,2.189,2.189,0,0,0,55.928,11.329Z" transform="translate(-46.659 -6.952)"/><path class="a" d="M5.436,44.154A1.628,1.628,0,0,1,5.69,41.5a2.782,2.782,0,0,0-1.031-.2H2.8a2.805,2.805,0,0,0-2.8,2.8v2.272l.006.035.156.049a12.777,12.777,0,0,0,3.749.613V46.1A2.014,2.014,0,0,1,5.436,44.154Z" transform="translate(0 -36.778)"/><path class="a" d="M58.369,41.3H56.512a2.781,2.781,0,0,0-1.031.2,1.628,1.628,0,0,1,.255,2.651A2.011,2.011,0,0,1,57.26,46.1v.97a12.78,12.78,0,0,0,3.749-.613l.156-.049.006-.035V44.105A2.806,2.806,0,0,0,58.369,41.3Z" transform="translate(-48.171 -36.777)"/></g></g></svg>