<svg xmlns="http://www.w3.org/2000/svg" width="7.49" height="9.533" viewBox="0 0 7.49 9.533">
  <path id="file-text" d="M167.39,66.391a.34.34,0,0,1,.1.24v6.562a.34.34,0,0,1-.34.34H160.34a.34.34,0,0,1-.341-.34V64.34a.34.34,0,0,1,.341-.34h4.519a.342.342,0,0,1,.242.1Zm-.685.4-2-2v2Zm-5,1.66a.085.085,0,0,0-.085.085v.511a.085.085,0,0,0,.085.085h4.086a.085.085,0,0,0,.085-.085v-.511a.085.085,0,0,0-.085-.085Zm0,1.447a.085.085,0,0,0-.085.085v.511a.085.085,0,0,0,.085.085h1.958a.085.085,0,0,0,.085-.085V69.98a.085.085,0,0,0-.085-.085Z" transform="translate(-160 -64)" fill="#595959"/>
</svg>
