<svg xmlns="http://www.w3.org/2000/svg" width="704" height="896" viewBox="0 0 704 896">
  <defs>
    <style>
      .cls-1 {
        fill: #fffff;
      }
    </style>
  </defs>
  <path id="file-text_1_" data-name="file-text (1)" class="cls-1" d="M854.6,288.7a31.943,31.943,0,0,1,9.4,22.6V928a31.966,31.966,0,0,1-32,32H192a31.966,31.966,0,0,1-32-32V96a31.966,31.966,0,0,1,32-32H616.7a32.175,32.175,0,0,1,22.7,9.4L854.6,288.7ZM790.2,326,602,137.8V326ZM320,482a8,8,0,0,0-8,8v48a8,8,0,0,0,8,8H704a8,8,0,0,0,8-8V490a8,8,0,0,0-8-8Zm0,136a8,8,0,0,0-8,8v48a8,8,0,0,0,8,8H504a8,8,0,0,0,8-8V626a8,8,0,0,0-8-8Z" transform="translate(-160 -64)"/>
</svg>
