<svg xmlns="http://www.w3.org/2000/svg" width="16.867" height="13.493" viewBox="0 0 16.867 13.493">
  <path id="Path_326" data-name="Path 326" d="M10.433,4H4.53A2.527,2.527,0,0,0,2,6.53v6.747a2.527,2.527,0,0,0,2.53,2.53l-.843.843v.843H4.53l1.687-1.712,1.687.025V11.59H3.687V5.67l7.59.017V7.373h1.687V6.53A2.527,2.527,0,0,0,10.433,4Zm-5.9,8.433a.843.843,0,1,1-.843.843A.846.846,0,0,1,4.53,12.433Zm13.131-3.66a.846.846,0,0,0-.818-.557H10.779a.857.857,0,0,0-.826.557L8.747,12.239l.008,4.647a.605.605,0,0,0,.582.607H9.86a.63.63,0,0,0,.573-.641V15.807H17.18v1.046a.637.637,0,0,0,.582.641h.514a.605.605,0,0,0,.582-.607l.008-1.155V12.239L17.661,8.773Zm-6.882.287h6.064l.869,2.53h-7.8l.869-2.53Zm-.346,5.06a.843.843,0,1,1,.843-.843A.846.846,0,0,1,10.433,14.12Zm6.747,0a.843.843,0,1,1,.843-.843A.846.846,0,0,1,17.18,14.12Z" transform="translate(-2 -4)" fill="#595959"/>
</svg>
