<svg xmlns="http://www.w3.org/2000/svg" width="18.102" height="18.102" viewBox="0 0 18.102 18.102">
  <path id="global" d="M79.969,78.888l.014-.018a9.05,9.05,0,0,0,0-11.637c0-.006-.01-.01-.014-.016-.022-.026-.042-.051-.065-.075l-.024-.028-.083-.095,0,0-.093-.1,0,0c-.065-.069-.129-.137-.2-.2l0,0-.1-.1L79.4,66.6c-.03-.03-.061-.059-.091-.087-.01-.01-.02-.02-.032-.03s-.04-.038-.061-.057a.188.188,0,0,1-.02-.02,9.049,9.049,0,0,0-12.294,0,.192.192,0,0,0-.02.02c-.02.018-.04.038-.061.059s-.02.02-.032.03L66.7,66.6l-.006.006-.1.1,0,0c-.067.067-.131.135-.2.2l0,0c-.032.034-.063.069-.093.1l0,0c-.028.03-.057.063-.083.095l-.024.028c-.022.024-.042.051-.065.075,0,.006-.01.01-.014.016a9.054,9.054,0,0,0,0,11.635l.014.018.063.075.024.028.083.095s0,0,0,0c.03.034.061.069.093.1l0,0c.065.069.129.137.194.2l0,0c.032.032.063.065.095.095l.006.006c.067.067.135.131.2.194a9.057,9.057,0,0,0,12.3,0q.1-.095.2-.194l.006-.006c.032-.032.065-.063.095-.095l0,0c.067-.067.131-.135.194-.2l0,0c.03-.034.063-.067.093-.1,0,0,0,0,0,0,.028-.03.057-.063.083-.095l.024-.028Q79.936,78.926,79.969,78.888Zm.083-2.881a7.586,7.586,0,0,1-1.1,1.822A8.972,8.972,0,0,0,77.31,76.7a15.1,15.1,0,0,0,.418-3.083h2.9A7.553,7.553,0,0,1,80.052,76.007Zm.576-3.521h-2.9A15.1,15.1,0,0,0,77.31,69.4a8.972,8.972,0,0,0,1.647-1.129A7.553,7.553,0,0,1,80.627,72.485Zm-4.621-6.435a7.553,7.553,0,0,1,2.174,1.4,7.975,7.975,0,0,1-1.2.845,8.673,8.673,0,0,0-1.2-2.331C75.859,65.99,75.934,66.02,76.007,66.051Zm-1.83,14.154a2.286,2.286,0,0,1-.56.331V76.789a7.861,7.861,0,0,1,2.338.529,8.755,8.755,0,0,1-.586,1.37A4.884,4.884,0,0,1,74.176,80.205Zm1.192-12.791a9.126,9.126,0,0,1,.586,1.37,7.86,7.86,0,0,1-2.338.529V65.568a2.26,2.26,0,0,1,.56.331A4.85,4.85,0,0,1,75.368,67.414Zm-1.752,8.241V73.617H76.6a14.033,14.033,0,0,1-.329,2.582l-.006.024A8.991,8.991,0,0,0,73.617,75.655Zm0-3.17V70.447a8.99,8.99,0,0,0,2.645-.568l.006.024a14.011,14.011,0,0,1,.329,2.582Zm-1.131,1.131v2.039a8.991,8.991,0,0,0-2.645.568l-.006-.024a14.008,14.008,0,0,1-.329-2.582Zm-2.98-1.131a14.031,14.031,0,0,1,.329-2.582l.006-.024a8.976,8.976,0,0,0,2.645.568v2.039Zm2.98,4.3v3.746a2.26,2.26,0,0,1-.56-.331,4.863,4.863,0,0,1-1.194-1.517,9.127,9.127,0,0,1-.586-1.37A7.885,7.885,0,0,1,72.485,76.789Zm0-7.475a7.86,7.86,0,0,1-2.338-.529,8.757,8.757,0,0,1,.586-1.37A4.835,4.835,0,0,1,71.928,65.9a2.286,2.286,0,0,1,.56-.331v3.748ZM70.1,66.051c.075-.03.147-.061.222-.089a8.673,8.673,0,0,0-1.2,2.331,7.832,7.832,0,0,1-1.2-.845A7.553,7.553,0,0,1,70.1,66.051ZM66.051,70.1a7.587,7.587,0,0,1,1.1-1.822A8.971,8.971,0,0,0,68.792,69.4a15.1,15.1,0,0,0-.418,3.083h-2.9A7.553,7.553,0,0,1,66.051,70.1Zm-.576,3.521h2.9a15.1,15.1,0,0,0,.418,3.083,8.971,8.971,0,0,0-1.647,1.129A7.553,7.553,0,0,1,65.475,73.617Zm4.62,6.435a7.552,7.552,0,0,1-2.174-1.4,7.974,7.974,0,0,1,1.2-.844,8.673,8.673,0,0,0,1.2,2.331C70.243,80.112,70.168,80.082,70.1,80.052Zm5.911,0c-.075.03-.147.061-.222.089a8.673,8.673,0,0,0,1.2-2.331,7.831,7.831,0,0,1,1.2.844A7.552,7.552,0,0,1,76.007,80.052Z" transform="translate(-64 -64)" fill="#396d87"/>
</svg>
