<!-- <svg xmlns="http://www.w3.org/2000/svg" width="49" height="49" viewBox="0 0 49 49"><defs><style>.a{fill:#c32424;}.b{fill:none;}.c,.d{stroke:none;}.d{fill:#ffbfbf;}</style></defs><g transform="translate(-724 -297)"><path class="a" d="M12.484,5.9V0H3.814a1.038,1.038,0,0,0-1.04,1.04V11.1H.347A.348.348,0,0,0,0,11.443v.694a.348.348,0,0,0,.347.347H6.454a.353.353,0,0,1,.312.191L7.629,14.4l2.462-4.928a.346.346,0,0,1,.62,0l1.5,3.013h3.043a.694.694,0,1,1,0,1.387h-3.9L10.4,11.955,7.941,16.883a.346.346,0,0,1-.62,0L5.813,13.871H2.774v7.282a1.038,1.038,0,0,0,1.04,1.04H18.379a1.038,1.038,0,0,0,1.04-1.04V6.935h-5.9A1.043,1.043,0,0,1,12.484,5.9Zm6.632-1.344L14.872.3a1.04,1.04,0,0,0-.737-.3h-.264V5.548h5.548V5.284A1.037,1.037,0,0,0,19.116,4.551Z" transform="translate(738.791 310.807)"/><g class="b" transform="translate(724 297)"><path class="c" d="M24.5,0A24.5,24.5,0,1,1,0,24.5,24.5,24.5,0,0,1,24.5,0Z"/><path class="d" d="M 24.5 1 C 21.32707977294922 1 18.24959945678711 1.621200561523438 15.3530387878418 2.846340179443359 C 12.5547981262207 4.029888153076172 10.04151153564453 5.724468231201172 7.882991790771484 7.882991790771484 C 5.724468231201172 10.04151153564453 4.029888153076172 12.5547981262207 2.846340179443359 15.3530387878418 C 1.621200561523438 18.24959945678711 1 21.32707977294922 1 24.5 C 1 27.67292022705078 1.621200561523438 30.75040054321289 2.846340179443359 33.64694976806641 C 4.029888153076172 36.44519805908203 5.724468231201172 38.95848083496094 7.882991790771484 41.11701202392578 C 10.04151153564453 43.27552795410156 12.5547981262207 44.97010803222656 15.3530387878418 46.15365982055664 C 18.24959945678711 47.37879943847656 21.32707977294922 48 24.5 48 C 27.67292022705078 48 30.75040054321289 47.37879943847656 33.64694976806641 46.15365982055664 C 36.4451904296875 44.97010803222656 38.95848083496094 43.27552795410156 41.11701202392578 41.11701202392578 C 43.27552795410156 38.95848083496094 44.97010803222656 36.4451904296875 46.15365982055664 33.64694976806641 C 47.37879943847656 30.75040054321289 48 27.67292022705078 48 24.5 C 48 21.32707977294922 47.37879943847656 18.24959945678711 46.15365982055664 15.3530387878418 C 44.97010803222656 12.5547981262207 43.27552795410156 10.04151153564453 41.11701202392578 7.882991790771484 C 38.95848083496094 5.724468231201172 36.44519805908203 4.029888153076172 33.64694976806641 2.846340179443359 C 30.75040054321289 1.621200561523438 27.67292022705078 1 24.5 1 M 24.5 0 C 38.03096771240234 0 49 10.96902084350586 49 24.5 C 49 38.03096771240234 38.03096771240234 49 24.5 49 C 10.96902084350586 49 0 38.03096771240234 0 24.5 C 0 10.96902084350586 10.96902084350586 0 24.5 0 Z"/></g></g></svg> -->

<svg xmlns="http://www.w3.org/2000/svg" width="49" height="49" viewBox="0 0 49 49"><defs><style>.a{fill:#c32424;}.b{fill:none;}.c,.d{stroke:none;}.d{fill:#ffbfbf;}</style></defs><g transform="translate(-724 -297)"><path class="a" d="M12.484,5.9V0H3.814a1.038,1.038,0,0,0-1.04,1.04V11.1H.347A.348.348,0,0,0,0,11.443v.694a.348.348,0,0,0,.347.347H6.454a.353.353,0,0,1,.312.191L7.629,14.4l2.462-4.928a.346.346,0,0,1,.62,0l1.5,3.013h3.043a.694.694,0,1,1,0,1.387h-3.9L10.4,11.955,7.941,16.883a.346.346,0,0,1-.62,0L5.813,13.871H2.774v7.282a1.038,1.038,0,0,0,1.04,1.04H18.379a1.038,1.038,0,0,0,1.04-1.04V6.935h-5.9A1.043,1.043,0,0,1,12.484,5.9Zm6.632-1.344L14.872.3a1.04,1.04,0,0,0-.737-.3h-.264V5.548h5.548V5.284A1.037,1.037,0,0,0,19.116,4.551Z" transform="translate(738.791 310.807)"/><g class="b" transform="translate(724 297)"></g></g></svg>