<svg xmlns="http://www.w3.org/2000/svg" width="449.845" height="199.725" viewBox="0 0 449.845 199.725">
  <g id="Group_841" data-name="Group 841" transform="translate(0 0)">
    <path id="Path_139" data-name="Path 139" d="M342.459,378.226H160.217a9.277,9.277,0,0,1-9.266-9.266V257.685a7.064,7.064,0,0,1,7.056-7.057H344.564a7.169,7.169,0,0,1,7.161,7.161V368.959A9.277,9.277,0,0,1,342.459,378.226Z" transform="translate(-150.951 -250.629)" fill="#fff"/>
    <path id="Path_140" data-name="Path 140" d="M342.459,378.226H160.217a9.277,9.277,0,0,1-9.266-9.266V257.685a7.064,7.064,0,0,1,7.056-7.057H344.564a7.169,7.169,0,0,1,7.161,7.161V368.959A9.277,9.277,0,0,1,342.459,378.226ZM158.007,252.632a5.059,5.059,0,0,0-5.053,5.053V368.959a7.271,7.271,0,0,0,7.263,7.263H342.459a7.271,7.271,0,0,0,7.263-7.263V257.79a5.163,5.163,0,0,0-5.158-5.158Z" transform="translate(-150.951 -250.629)" fill="#e6e6e6"/>
    <path id="Path_141" data-name="Path 141" d="M257.158,378.126H202.552a5.519,5.519,0,0,1-5.462-4.79,5,5,0,0,1-.048-.72V312.385a5.516,5.516,0,0,1,5.51-5.51h54.607a5.516,5.516,0,0,1,5.51,5.51v60.232A5.516,5.516,0,0,1,257.158,378.126ZM202.552,309.88a2.507,2.507,0,0,0-2.5,2.5v60.232a2.132,2.132,0,0,0,.019.308,2.512,2.512,0,0,0,2.485,2.2h54.607a2.507,2.507,0,0,0,2.5-2.5V312.385a2.507,2.507,0,0,0-2.5-2.5Z" transform="translate(-173.955 -278.702)" fill="#e6e6e6"/>
    <path id="Path_142" data-name="Path 142" d="M427.822,402.039H361.705a4.007,4.007,0,1,1,0-8.014h66.117a4.007,4.007,0,0,1,0,8.014Z" transform="translate(-254.141 -322.2)" fill="#e6e6e6"/>
    <path id="Path_143" data-name="Path 143" d="M397.769,368.039H361.705a4.007,4.007,0,1,1,0-8.014h36.064a4.007,4.007,0,1,1,0,8.014Z" transform="translate(-254.141 -305.23)" fill="#e6e6e6"/>
    <path id="Path_144" data-name="Path 144" d="M262.064,350.238c0,8.852-8.185,7.513-18.282,7.513s-18.282,1.339-18.282-7.513,4-24.543,18.282-24.543C258.557,325.7,262.064,341.386,262.064,350.238Z" transform="translate(-188.159 -288.096)" fill="#2f2e41"/>
    <path id="Path_145" data-name="Path 145" d="M291.185,401.392a4.541,4.541,0,0,0-1.984-2.424,3.947,3.947,0,0,0-.561-.286,4.535,4.535,0,0,0-6,5.745l7.283,16.554h9.592Z" transform="translate(-216.541 -324.351)" fill="#3f3d56"/>
    <path id="Path_146" data-name="Path 146" d="M223.533,405.789a4.536,4.536,0,0,0-6.256,2.59L210.5,424.332a3.944,3.944,0,0,0,1.067.145h8.51l5.75-13.063A4.527,4.527,0,0,0,223.533,405.789Z" transform="translate(-180.67 -327.846)" fill="#3f3d56"/>
    <circle id="Ellipse_12" data-name="Ellipse 12" cx="12.302" cy="12.302" r="12.302" transform="translate(43.259 45.037)" fill="#ffb8b8"/>
    <path id="Path_147" data-name="Path 147" d="M260.244,397.746c-.07-.065-.14-.135-.215-.2a7.99,7.99,0,0,0-6.386-1.989l-22.67,2.87a8.045,8.045,0,0,0-7.022,8.736c.311,3.5.812,7.909,1.613,12.4h35.813l1.317-15.307A8.032,8.032,0,0,0,260.244,397.746Z" transform="translate(-187.368 -322.933)" fill="#3f3d56"/>
    <path id="Path_148" data-name="Path 148" d="M233.5,349.718h4.866l2.147-6.011.429,6.011h2.326l1.252-3.506.25,3.506H262.05a13.023,13.023,0,0,0-13.023-13.023h-2.5A13.023,13.023,0,0,0,233.5,349.718Z" transform="translate(-192.152 -293.586)" fill="#2f2e41"/>
    <path id="Path_149" data-name="Path 149" d="M648.211,368.959V257.79a7.169,7.169,0,0,1,7.161-7.161H841.929a7.064,7.064,0,0,1,7.057,7.057V368.959a9.277,9.277,0,0,1-9.266,9.266H657.477A9.277,9.277,0,0,1,648.211,368.959Z" transform="translate(-399.14 -250.629)" fill="#fff"/>
    <path id="Path_150" data-name="Path 150" d="M648.211,368.959V257.79a7.169,7.169,0,0,1,7.161-7.161H841.929a7.064,7.064,0,0,1,7.057,7.057V368.959a9.277,9.277,0,0,1-9.266,9.266H657.477A9.277,9.277,0,0,1,648.211,368.959Zm7.161-116.327a5.163,5.163,0,0,0-5.158,5.158V368.959a7.271,7.271,0,0,0,7.263,7.263H839.719a7.271,7.271,0,0,0,7.263-7.263V257.685a5.059,5.059,0,0,0-5.053-5.053Z" transform="translate(-399.14 -250.629)" fill="#e6e6e6"/>
    <path id="Path_151" data-name="Path 151" d="M871.938,372.616V312.385a5.516,5.516,0,0,1,5.51-5.51h54.607a5.516,5.516,0,0,1,5.51,5.51v60.232a5.017,5.017,0,0,1-.048.72,5.519,5.519,0,0,1-5.462,4.79H877.448A5.516,5.516,0,0,1,871.938,372.616Zm5.51-62.736a2.507,2.507,0,0,0-2.5,2.5v60.232a2.507,2.507,0,0,0,2.5,2.5h54.607a2.512,2.512,0,0,0,2.485-2.2,2.094,2.094,0,0,0,.019-.308V312.385a2.507,2.507,0,0,0-2.5-2.5Z" transform="translate(-510.805 -278.702)" fill="#e6e6e6"/>
    <path id="Path_152" data-name="Path 152" d="M694.3,398.032a4.012,4.012,0,0,1,4.007-4.007h66.117a4.007,4.007,0,1,1,0,8.014H698.309A4.012,4.012,0,0,1,694.3,398.032Z" transform="translate(-422.145 -322.2)" fill="#e6e6e6"/>
    <path id="Path_153" data-name="Path 153" d="M694.3,364.032a4.012,4.012,0,0,1,4.007-4.007h36.064a4.007,4.007,0,1,1,0,8.014H698.309A4.012,4.012,0,0,1,694.3,364.032Z" transform="translate(-422.145 -305.23)" fill="#e6e6e6"/>
    <path id="Path_154" data-name="Path 154" d="M908.7,339.625c3.512,6.9,6.279,14.025,14.025,14.025a14.025,14.025,0,0,0,0-28.05C914.856,325.5,902.167,326.774,908.7,339.625Z" transform="translate(-528.252 -288.046)" fill="#2f2e41"/>
    <circle id="Ellipse_13" data-name="Ellipse 13" cx="12.302" cy="12.302" r="12.302" transform="translate(381.483 41.272)" fill="#a0616a"/>
    <path id="Path_155" data-name="Path 155" d="M934.04,395.549a21.432,21.432,0,0,0-2.58-2.384,20.9,20.9,0,0,0-14.22-4.408q-.308.015-.616.045a20.95,20.95,0,0,0-15.107,8.335,21.211,21.211,0,0,0-3.767,17.105c.135.626.255,1.257.37,1.888H938.9l.471-3.156A21.084,21.084,0,0,0,934.04,395.549Z" transform="translate(-523.459 -319.55)" fill="#3f3d56"/>
    <path id="Path_156" data-name="Path 156" d="M969.069,403.039a7.14,7.14,0,0,0-6.977-5.91c-.065,0-.135.005-.2.005a7.187,7.187,0,0,0-1.648.23,7.112,7.112,0,0,0-5.039,8.73l3.852,14.235h12.963Z" transform="translate(-552.242 -323.749)" fill="#3f3d56"/>
    <path id="Path_157" data-name="Path 157" d="M906.166,397.631a7.1,7.1,0,0,0-2.049-2.444,6.9,6.9,0,0,0-2.014-1.052,6.687,6.687,0,0,0-.907-.24,7.149,7.149,0,0,0-8.064,4.628l-7.052,20.131h13.384l6.827-14.806a7.058,7.058,0,0,0-.125-6.216Z" transform="translate(-517.864 -322.072)" fill="#3f3d56"/>
    <path id="Path_158" data-name="Path 158" d="M911.064,337.143a16.732,16.732,0,0,0,9.562,2.955,10.253,10.253,0,0,1-4.064,1.672,33.739,33.739,0,0,0,13.781.077,8.919,8.919,0,0,0,2.885-.991,3.651,3.651,0,0,0,1.781-2.382c.3-1.727-1.044-3.3-2.442-4.354a18.016,18.016,0,0,0-15.139-3.025,8.29,8.29,0,0,0-4.484,2.534,4.084,4.084,0,0,0-.377,4.85Z" transform="translate(-530.334 -290.522)" fill="#2f2e41"/>
    <path id="Path_159" data-name="Path 159" d="M591.089,522.226H408.847a9.277,9.277,0,0,1-9.266-9.266V401.685a7.065,7.065,0,0,1,7.056-7.057H593.194a7.169,7.169,0,0,1,7.161,7.161V512.959A9.277,9.277,0,0,1,591.089,522.226Z" transform="translate(-275.046 -322.501)" fill="#fff"/>
    <path id="Path_160" data-name="Path 160" d="M591.089,522.226H408.847a9.277,9.277,0,0,1-9.266-9.266V401.685a7.065,7.065,0,0,1,7.056-7.057H593.194a7.169,7.169,0,0,1,7.161,7.161V512.959A9.277,9.277,0,0,1,591.089,522.226ZM406.637,396.632a5.059,5.059,0,0,0-5.053,5.053V512.959a7.271,7.271,0,0,0,7.263,7.263H591.089a7.271,7.271,0,0,0,7.263-7.263V401.79a5.163,5.163,0,0,0-5.158-5.158Z" transform="translate(-275.046 -322.501)" fill="#3f3d56"/>
    <path id="Path_161" data-name="Path 161" d="M505.788,522.126H451.182a5.519,5.519,0,0,1-5.462-4.79,5,5,0,0,1-.048-.72V456.385a5.516,5.516,0,0,1,5.51-5.51h54.607a5.516,5.516,0,0,1,5.51,5.51v60.232A5.516,5.516,0,0,1,505.788,522.126ZM451.182,453.88a2.507,2.507,0,0,0-2.5,2.5v60.232a2.129,2.129,0,0,0,.019.308,2.512,2.512,0,0,0,2.485,2.2h54.607a2.507,2.507,0,0,0,2.5-2.5V456.385a2.507,2.507,0,0,0-2.5-2.5Z" transform="translate(-298.05 -350.575)" fill="#e6e6e6"/>
    <path id="Path_162" data-name="Path 162" d="M485.9,471.018c-3.555-1.654-7.919-2.2-11.536-.659s-6.083,5.475-4.913,8.961c.53,1.58,1.738,3.135,1.267,4.731a4.87,4.87,0,0,1-2.866,2.617,10.681,10.681,0,0,0-3.5,2.034c-.9.973-1.084,2.647.037,3.4.369.249.831.366,1.189.628a1.889,1.889,0,0,1,.583,2.115,4.455,4.455,0,0,1-1.428,1.879c-1.273,1.1-2.954,2.353-2.559,3.911a2.744,2.744,0,0,0,1.852,1.732,9.2,9.2,0,0,0,2.718.359L504.3,503.91a14.232,14.232,0,0,0,3.707-.207,4.389,4.389,0,0,0,2.912-1.956,4.077,4.077,0,0,0-.641-4.213,39.964,39.964,0,0,0-3.183-3.365,5.339,5.339,0,0,1-1.7-4.041,10.328,10.328,0,0,1,1.484-3.274,3.26,3.26,0,0,0,.16-3.4c-1.02-1.391-3.47-1.265-4.63-2.561-.875-.978-.706-2.386-.793-3.647a8.847,8.847,0,0,0-5.3-7.229,10.434,10.434,0,0,0-9.493.647Z" transform="translate(-306.26 -359.706)" fill="#2f2e41"/>
    <circle id="Ellipse_14" data-name="Ellipse 14" cx="12.302" cy="12.302" r="12.302" transform="translate(168.729 119.308)" fill="#a0616a"/>
    <path id="Path_163" data-name="Path 163" d="M509.216,557.208a11.915,11.915,0,0,0-6.351-10.469c-.155-.085-.316-.16-.476-.235a11.829,11.829,0,0,0-4.413-1.122l-11.711-.656a11.82,11.82,0,0,0-4.859.746,11.358,11.358,0,0,0-1.107.481,11.791,11.791,0,0,0-3.065,2.179,11.924,11.924,0,0,0-3.536,8.986l.211,4.964,1.473,3.822h32.743a9,9,0,0,0,1.052-1.593A7.974,7.974,0,0,0,509.216,557.208Z" transform="translate(-312.033 -397.407)" fill="#3f3d56"/>
    <path id="Path_164" data-name="Path 164" d="M529.464,552.4a7.085,7.085,0,0,0-2.424-2.875,7.167,7.167,0,0,0-3.6-1.247,7.052,7.052,0,0,0-2.154.185,7.149,7.149,0,0,0-4.6,10.263l4.5,8.525.225.426h15.122Z" transform="translate(-333.083 -399.182)" fill="#3f3d56"/>
    <path id="Path_165" data-name="Path 165" d="M480.388,546.877a7.185,7.185,0,0,0-2.259-.711,6.959,6.959,0,0,0-1.768-.025,7.141,7.141,0,0,0-6.191,5.655l-3.05,14.8H479.05l2.229-.912,2.775-10.649A7.172,7.172,0,0,0,480.388,546.877Z" transform="translate(-308.755 -398.101)" fill="#3f3d56"/>
    <path id="Path_166" data-name="Path 166" d="M484.189,494.532a7.626,7.626,0,0,0,6.707-8.07,6.516,6.516,0,0,0,5.581,6.635c1.782.2,3.736-.343,5.287.556,1.718,1,2.268,3.414,4.058,4.274,1.729.831,3.926-.3,4.78-2.02a7.657,7.657,0,0,0,.078-5.615,15.854,15.854,0,0,0-26.391-6.5,10.151,10.151,0,0,0-3.141,6.045,5.954,5.954,0,0,0,2.932,5.848Z" transform="translate(-315.743 -364.67)" fill="#2f2e41"/>
    <path id="Path_167" data-name="Path 167" d="M676.452,546.039H610.335a4.007,4.007,0,1,1,0-8.014h66.117a4.007,4.007,0,1,1,0,8.014Z" transform="translate(-378.236 -394.072)" fill="#e6e6e6"/>
    <path id="Path_168" data-name="Path 168" d="M646.4,512.039H610.335a4.007,4.007,0,1,1,0-8.014H646.4a4.007,4.007,0,0,1,0,8.014Z" transform="translate(-378.236 -377.103)" fill="#29659a"/>
    <path id="Path_169" data-name="Path 169" d="M711.8,578.449a13.212,13.212,0,1,0,0,26.425h0a13.212,13.212,0,0,0,0-26.425Z" transform="translate(-424.281 -414.249)" fill="#29659a"/>
    <path id="Path_395" data-name="Path 395" d="M717.229,604.065a1.6,1.6,0,0,1-.964-.321l-.017-.013-3.633-2.779a1.615,1.615,0,0,1,1.965-2.563l2.353,1.8,5.561-7.255a1.614,1.614,0,0,1,2.263-.3h0l-.035.048.036-.048a1.616,1.616,0,0,1,.3,2.263l-6.541,8.53a1.615,1.615,0,0,1-1.284.63Z" transform="translate(-430.969 -421.165)" fill="#fff"/>
  </g>
</svg>
