<!-- <svg xmlns="http://www.w3.org/2000/svg" width="49" height="49" viewBox="0 0 49 49"><defs><style>.a,.d{fill:none;}.a{stroke:#e4c0c0;}.b{fill:#8c5252;}.c{stroke:none;}</style></defs><g transform="translate(-1073 -230)"><g class="a" transform="translate(1073 230)"><rect class="c" width="49" height="49" rx="24.5"/><rect class="d" x="0.5" y="0.5" width="48" height="48" rx="24"/></g><path class="b" d="M22.217,18.154,15.837,7.524V3.219h.645a.645.645,0,0,0,0-1.291H10.029a.645.645,0,0,0,0,1.291h.645V7.524L4.295,18.154c-1.461,2.435-.333,4.428,2.507,4.428H19.71C22.55,22.581,23.678,20.589,22.217,18.154ZM7.791,14.836l4.174-6.957V3.219h2.582v4.66l4.174,6.957Z" transform="translate(1084.244 241.072)"/></g></svg> -->
<svg xmlns="http://www.w3.org/2000/svg" width="49" height="49" viewBox="0 0 49 49"><defs><style>.a,.d{fill:none;}.a{stroke:#e4c0c0;}.b{fill:#8c5252;}.c{stroke:none;}</style></defs><g transform="translate(-1073 -230)"><g class="a" transform="translate(1073 230)"></g><path class="b" d="M22.217,18.154,15.837,7.524V3.219h.645a.645.645,0,0,0,0-1.291H10.029a.645.645,0,0,0,0,1.291h.645V7.524L4.295,18.154c-1.461,2.435-.333,4.428,2.507,4.428H19.71C22.55,22.581,23.678,20.589,22.217,18.154ZM7.791,14.836l4.174-6.957V3.219h2.582v4.66l4.174,6.957Z" transform="translate(1084.244 241.072)"/></g></svg>