<svg xmlns="http://www.w3.org/2000/svg" width="36.83" height="36.83" viewBox="0 0 36.83 36.83"><defs><style>.a{fill:#2a3e4c;}.b,.d{fill:none;}.b{stroke:#2a3e4c;stroke-width:2px;}.c{stroke:none;}</style></defs><g transform="translate(7.119 3.236)"><path class="a" d="M291.682,369.187H288.6a.593.593,0,1,1,0-1.187h3.085a.593.593,0,1,1,0,1.187Zm0,0" transform="translate(-273.765 -344.862)"/><path class="a" d="M96.6,373.34a.593.593,0,0,1-.593-.593A4.752,4.752,0,0,1,100.75,368a.593.593,0,1,1,0,1.187,3.563,3.563,0,0,0-3.56,3.56A.593.593,0,0,1,96.6,373.34Zm0,0" transform="translate(-96.004 -344.862)"/><path class="a" d="M155.564,369.187H152.6a.593.593,0,1,1,0-1.187h2.966a.593.593,0,1,1,0,1.187Zm0,0" transform="translate(-147.851 -344.862)"/><path class="a" d="M96.6,426.855a.593.593,0,0,1-.593-.593v-.509a.593.593,0,0,1,1.187,0v.509A.593.593,0,0,1,96.6,426.855Zm0,0" transform="translate(-96.004 -397.783)"/><path class="a" d="M192.6,336.981a.593.593,0,0,1-.593-.593v-2.58a.593.593,0,0,1,1.187,0v2.58A.593.593,0,0,1,192.6,336.981Zm0,0" transform="translate(-184.885 -312.657)"/><path class="a" d="M288.6,336.981a.593.593,0,0,1-.593-.593v-2.58a.593.593,0,0,1,1.187,0v2.58A.593.593,0,0,1,288.6,336.981Zm0,0" transform="translate(-273.765 -312.657)"/><path class="a" d="M136.9,241.493a8.909,8.909,0,0,1-8.9-8.9.593.593,0,0,1,1.187,0,7.713,7.713,0,1,0,15.425,0,.593.593,0,0,1,1.187,0A8.909,8.909,0,0,1,136.9,241.493Zm0,0" transform="translate(-125.631 -218.948)"/><path class="a" d="M128.6,159.105a.593.593,0,0,1-.593-.593v-5.919a.593.593,0,0,1,1.187,0v5.919a.593.593,0,0,1-.593.593Zm0,0" transform="translate(-125.631 -144.88)"/><path class="a" d="M352.6,151.721a.593.593,0,0,1-.593-.593V144.6a.593.593,0,0,1,1.187,0v6.526A.593.593,0,0,1,352.6,151.721Zm0,0" transform="translate(-333.019 -137.481)"/><path class="a" d="M308.157,100.746a.593.593,0,0,1-.593-.593,2.97,2.97,0,0,0-2.966-2.966.593.593,0,0,1,0-1.187,4.158,4.158,0,0,1,4.153,4.153A.593.593,0,0,1,308.157,100.746Zm0,0" transform="translate(-288.579 -93.034)"/><path class="a" d="M304.6,60.153A.593.593,0,0,1,304,59.56V56.593a.593.593,0,0,1,1.187,0V59.56A.593.593,0,0,1,304.6,60.153Zm0,0" transform="translate(-288.579 -56)"/><path class="a" d="M128.6,64.306a.593.593,0,0,1-.593-.593A7.722,7.722,0,0,1,135.717,56a.593.593,0,1,1,0,1.187,6.534,6.534,0,0,0-6.526,6.526A.593.593,0,0,1,128.6,64.306Zm0,0" transform="translate(-125.631 -56)"/><path class="a" d="M322.968,163.557a.592.592,0,0,1-.419-.174l-2.373-2.373a.593.593,0,0,1,.839-.839l2.373,2.373a.593.593,0,0,1-.419,1.013Zm0,0" transform="translate(-303.389 -152.285)"/><path class="a" d="M166.534,162.369a16.983,16.983,0,0,1-6.171-1.236.593.593,0,0,1,.475-1.087,14.834,14.834,0,0,0,11.391,0,.593.593,0,1,1,.474,1.087,16.982,16.982,0,0,1-6.17,1.236Zm0,0" transform="translate(-155.262 -152.284)"/><path class="a" d="M128.595,163.552a.593.593,0,0,1-.419-1.013l2.373-2.366a.593.593,0,0,1,.838.84l-2.373,2.366A.589.589,0,0,1,128.595,163.552Zm0,0" transform="translate(-125.628 -152.287)"/><path class="a" d="M194.371,370.373a.6.6,0,0,1-.329-.1l-1.78-1.187a.593.593,0,0,1,.659-.987l1.78,1.187a.593.593,0,0,1-.33,1.087Zm0,0" transform="translate(-184.879 -344.862)"/><path class="a" d="M216.6,377.771a.594.594,0,0,1-.187-1.156l1.78-.593a.593.593,0,0,1,.375,1.126l-1.78.593A.605.605,0,0,1,216.6,377.771Zm0,0" transform="translate(-207.107 -352.259)"/><path class="a" d="M264.593,370.373a.593.593,0,0,1-.33-1.087l1.78-1.187a.593.593,0,1,1,.659.987l-1.78,1.187A.6.6,0,0,1,264.593,370.373Zm0,0" transform="translate(-251.54 -344.862)"/><path class="a" d="M242.38,377.771a.6.6,0,0,1-.187-.031l-1.78-.593a.593.593,0,0,1,.375-1.126l1.78.593a.593.593,0,0,1-.188,1.156Zm0,0" transform="translate(-229.328 -352.26)"/><path class="a" d="M240.8,417.187a.593.593,0,0,1-.006-1.187h.006a.593.593,0,0,1,0,1.187Zm0,0" transform="translate(-229.509 -389.302)"/><path class="a" d="M240.8,449.187a.593.593,0,0,1-.006-1.187h.006a.593.593,0,1,1,0,1.187Zm0,0" transform="translate(-229.509 -418.929)"/><path class="a" d="M230.53,57.187H224.6a.593.593,0,0,1,0-1.187h5.933a.593.593,0,1,1,0,1.187Zm0,0" transform="translate(-214.511 -56)"/><path class="a" d="M100.75,373.34a.593.593,0,0,0,.593-.593A4.752,4.752,0,0,0,96.6,368a.593.593,0,1,0,0,1.187,3.563,3.563,0,0,1,3.56,3.56A.593.593,0,0,0,100.75,373.34Zm0,0" transform="translate(-78.206 -344.862)"/></g><g class="b"><circle class="c" cx="18.415" cy="18.415" r="18.415"/><circle class="d" cx="18.415" cy="18.415" r="17.415"/></g></svg>