<!-- <svg xmlns="http://www.w3.org/2000/svg" width="49" height="49" viewBox="0 0 49 49"><defs><style>.a,.d{fill:none;}.a{stroke:#d5aaff;}.b{fill:#662e9d;}.c{stroke:none;}</style></defs><g transform="translate(-1073 -230)"><g class="a" transform="translate(1073 230)"><rect class="c" width="49" height="49" rx="24.5"/><rect class="d" x="0.5" y="0.5" width="48" height="48" rx="24"/></g><path class="b" d="M19.125,3.375h-4.5V1.125A1.124,1.124,0,0,0,13.5,0H6.75A1.124,1.124,0,0,0,5.625,1.125v2.25h-4.5A1.124,1.124,0,0,0,0,4.5V17.438A.564.564,0,0,0,.563,18H19.688a.564.564,0,0,0,.563-.562V4.5A1.124,1.124,0,0,0,19.125,3.375ZM5.625,15.328a.423.423,0,0,1-.422.422H3.8a.423.423,0,0,1-.422-.422V13.922A.423.423,0,0,1,3.8,13.5H5.2a.423.423,0,0,1,.422.422Zm0-4.5a.423.423,0,0,1-.422.422H3.8a.423.423,0,0,1-.422-.422V9.422A.423.423,0,0,1,3.8,9H5.2a.423.423,0,0,1,.422.422Zm5.625,4.5a.423.423,0,0,1-.422.422H9.422A.423.423,0,0,1,9,15.328V13.922a.423.423,0,0,1,.422-.422h1.406a.423.423,0,0,1,.422.422Zm0-4.5a.423.423,0,0,1-.422.422H9.422A.423.423,0,0,1,9,10.828V9.422A.423.423,0,0,1,9.422,9h1.406a.423.423,0,0,1,.422.422Zm.563-5.977a.212.212,0,0,1-.211.211h-.914v.914a.212.212,0,0,1-.211.211h-.7a.212.212,0,0,1-.211-.211V5.063H8.648a.212.212,0,0,1-.211-.211v-.7a.212.212,0,0,1,.211-.211h.914V3.023a.212.212,0,0,1,.211-.211h.7a.212.212,0,0,1,.211.211v.914H11.6a.212.212,0,0,1,.211.211Zm5.063,10.477a.423.423,0,0,1-.422.422H15.047a.423.423,0,0,1-.422-.422V13.922a.423.423,0,0,1,.422-.422h1.406a.423.423,0,0,1,.422.422Zm0-4.5a.423.423,0,0,1-.422.422H15.047a.423.423,0,0,1-.422-.422V9.422A.423.423,0,0,1,15.047,9h1.406a.423.423,0,0,1,.422.422Z" transform="translate(1087.375 245.5)"/></g></svg>
 -->
 <svg xmlns="http://www.w3.org/2000/svg" width="49" height="49" viewBox="0 0 49 49"><defs><style>.a,.d{fill:none;}.a{stroke:#d5aaff;}.b{fill:#662e9d;}.c{stroke:none;}</style></defs><g transform="translate(-1073 -230)"><g class="a" transform="translate(1073 230)"></g><path class="b" d="M19.125,3.375h-4.5V1.125A1.124,1.124,0,0,0,13.5,0H6.75A1.124,1.124,0,0,0,5.625,1.125v2.25h-4.5A1.124,1.124,0,0,0,0,4.5V17.438A.564.564,0,0,0,.563,18H19.688a.564.564,0,0,0,.563-.562V4.5A1.124,1.124,0,0,0,19.125,3.375ZM5.625,15.328a.423.423,0,0,1-.422.422H3.8a.423.423,0,0,1-.422-.422V13.922A.423.423,0,0,1,3.8,13.5H5.2a.423.423,0,0,1,.422.422Zm0-4.5a.423.423,0,0,1-.422.422H3.8a.423.423,0,0,1-.422-.422V9.422A.423.423,0,0,1,3.8,9H5.2a.423.423,0,0,1,.422.422Zm5.625,4.5a.423.423,0,0,1-.422.422H9.422A.423.423,0,0,1,9,15.328V13.922a.423.423,0,0,1,.422-.422h1.406a.423.423,0,0,1,.422.422Zm0-4.5a.423.423,0,0,1-.422.422H9.422A.423.423,0,0,1,9,10.828V9.422A.423.423,0,0,1,9.422,9h1.406a.423.423,0,0,1,.422.422Zm.563-5.977a.212.212,0,0,1-.211.211h-.914v.914a.212.212,0,0,1-.211.211h-.7a.212.212,0,0,1-.211-.211V5.063H8.648a.212.212,0,0,1-.211-.211v-.7a.212.212,0,0,1,.211-.211h.914V3.023a.212.212,0,0,1,.211-.211h.7a.212.212,0,0,1,.211.211v.914H11.6a.212.212,0,0,1,.211.211Zm5.063,10.477a.423.423,0,0,1-.422.422H15.047a.423.423,0,0,1-.422-.422V13.922a.423.423,0,0,1,.422-.422h1.406a.423.423,0,0,1,.422.422Zm0-4.5a.423.423,0,0,1-.422.422H15.047a.423.423,0,0,1-.422-.422V9.422A.423.423,0,0,1,15.047,9h1.406a.423.423,0,0,1,.422.422Z" transform="translate(1087.375 245.5)"/></g></svg>