<svg xmlns="http://www.w3.org/2000/svg" width="19.8" height="19.8" viewBox="0 0 19.8 19.8"><defs><style>.a{fill:#2ecc71;}.b{fill:#fff;}</style></defs><g transform="translate(-981 -513)"><circle class="a" cx="9.9" cy="9.9" r="9.9" transform="translate(981 513)"/><g transform="translate(985 451.002)"><g transform="translate(0 67.997)"><path class="b" d="M11.437,68.158a.6.6,0,0,0-.821,0L3.663,74.738.99,72.209a.6.6,0,0,0-.821,0,.528.528,0,0,0,0,.777L3.253,75.9a.6.6,0,0,0,.821,0l7.364-6.967A.528.528,0,0,0,11.437,68.158Z" transform="translate(0 -67.998)"/></g></g></g></svg>