<!-- <svg xmlns="http://www.w3.org/2000/svg" width="49" height="49" viewBox="0 0 49 49"><defs><style>.a,.d{fill:none;}.a{stroke:#efc6e5;}.b{fill:#803b6f;}.c{stroke:none;}</style></defs><g transform="translate(-1073 -230)"><g class="a" transform="translate(1073 230)"><rect class="c" width="49" height="49" rx="24.5"/><rect class="d" x="0.5" y="0.5" width="48" height="48" rx="24"/></g><path class="b" d="M8.336,13.337a.556.556,0,1,0,.556.556A.557.557,0,0,0,8.336,13.337Zm5.557,1.111a.556.556,0,1,0-.556-.556A.557.557,0,0,0,13.893,14.448ZM21.672,0H.556A.557.557,0,0,0,0,.556V1.667a.557.557,0,0,0,.556.556H21.672a.557.557,0,0,0,.556-.556V.556A.557.557,0,0,0,21.672,0Zm0,15.56H20.005V3.334H2.223V15.56H.556A.557.557,0,0,0,0,16.115v1.111a.557.557,0,0,0,.556.556H21.672a.557.557,0,0,0,.556-.556V16.115A.557.557,0,0,0,21.672,15.56Zm-5-6.946a.279.279,0,0,1-.278.278H11.67V10h3.612a.279.279,0,0,1,.278.278v.556a.279.279,0,0,1-.278.278H11.67v1.111h2.223a1.667,1.667,0,1,1-1.667,1.667v-.556H10v.556a1.667,1.667,0,1,1-1.667-1.667h2.223V11.114H6.946a.279.279,0,0,1-.278-.278V10.28A.279.279,0,0,1,6.946,10h3.612V8.891H5.835a.279.279,0,0,1-.278-.278V8.058a.279.279,0,0,1,.278-.278h4.723V6.668H6.946a.279.279,0,0,1-.278-.278V5.835a.279.279,0,0,1,.278-.278h3.612V4.723a.279.279,0,0,1,.278-.278h.556a.279.279,0,0,1,.278.278v.834h3.612a.279.279,0,0,1,.278.278v.556a.279.279,0,0,1-.278.278H11.67V7.78h4.723a.279.279,0,0,1,.278.278Z" transform="translate(1086.386 245.609)"/></g></svg> -->
<svg xmlns="http://www.w3.org/2000/svg" width="49" height="49" viewBox="0 0 49 49"><defs><style>.a,.d{fill:none;}.a{stroke:#efc6e5;}.b{fill:#803b6f;}.c{stroke:none;}</style></defs><g transform="translate(-1073 -230)"><g class="a" transform="translate(1073 230)"></g><path class="b" d="M8.336,13.337a.556.556,0,1,0,.556.556A.557.557,0,0,0,8.336,13.337Zm5.557,1.111a.556.556,0,1,0-.556-.556A.557.557,0,0,0,13.893,14.448ZM21.672,0H.556A.557.557,0,0,0,0,.556V1.667a.557.557,0,0,0,.556.556H21.672a.557.557,0,0,0,.556-.556V.556A.557.557,0,0,0,21.672,0Zm0,15.56H20.005V3.334H2.223V15.56H.556A.557.557,0,0,0,0,16.115v1.111a.557.557,0,0,0,.556.556H21.672a.557.557,0,0,0,.556-.556V16.115A.557.557,0,0,0,21.672,15.56Zm-5-6.946a.279.279,0,0,1-.278.278H11.67V10h3.612a.279.279,0,0,1,.278.278v.556a.279.279,0,0,1-.278.278H11.67v1.111h2.223a1.667,1.667,0,1,1-1.667,1.667v-.556H10v.556a1.667,1.667,0,1,1-1.667-1.667h2.223V11.114H6.946a.279.279,0,0,1-.278-.278V10.28A.279.279,0,0,1,6.946,10h3.612V8.891H5.835a.279.279,0,0,1-.278-.278V8.058a.279.279,0,0,1,.278-.278h4.723V6.668H6.946a.279.279,0,0,1-.278-.278V5.835a.279.279,0,0,1,.278-.278h3.612V4.723a.279.279,0,0,1,.278-.278h.556a.279.279,0,0,1,.278.278v.834h3.612a.279.279,0,0,1,.278.278v.556a.279.279,0,0,1-.278.278H11.67V7.78h4.723a.279.279,0,0,1,.278.278Z" transform="translate(1086.386 245.609)"/></g></svg>