<!-- <svg xmlns="http://www.w3.org/2000/svg" width="49" height="49" viewBox="0 0 49 49"><defs><style>.a{fill:#1d8f2b;}.b,.d{fill:none;}.b{stroke:#bcdcc0;}.c{stroke:none;}</style></defs><g transform="translate(-528 -297)"><path class="a" d="M18.512,5.851a1.8,1.8,0,0,0,1.773-1.823,1.771,1.771,0,1,0-3.54,0,1.8,1.8,0,0,0,1.767,1.823Zm1.318.408H17.246l-4.4-4.529a.881.881,0,0,0-1.277-.03.947.947,0,0,0-.034,1.314l4.6,4.739V23.457a.995.995,0,1,0,1.988,0V14.939h.8l.006,8.519a.995.995,0,1,0,1.988,0l-.006-15.7,4.6-4.739A.948.948,0,0,0,25.48,1.7a.88.88,0,0,0-1.277.03L19.83,6.259ZM10.47,13.187a1.428,1.428,0,0,0-1.043-.45h-3.7a1.407,1.407,0,0,0-1.038.45L.97,17.009A.948.948,0,0,0,1,18.323a.885.885,0,0,0,1.277-.03l2.88-2.963v3.959H1.927a1.087,1.087,0,0,0-1.074,1.1,1.1,1.1,0,0,0,.327.8l3.639,3.743a1.071,1.071,0,0,0,1.453.342,1.14,1.14,0,0,0,.4-1.541L4.6,21.61l.041.006H10.6l-2.082,2.13a1.151,1.151,0,0,0,.4,1.541,1.078,1.078,0,0,0,1.459-.341L14.015,21.2a1.106,1.106,0,0,0,.327-.8,1.085,1.085,0,0,0-1.073-1.1H10.044V15.377L12.872,18.3a.884.884,0,0,0,1.277.03.947.947,0,0,0,.03-1.313L10.47,13.187Zm-2.857-.84A1.818,1.818,0,1,0,5.845,10.53,1.79,1.79,0,0,0,7.613,12.347Z" transform="translate(540.206 307.56)"/><g class="b" transform="translate(528 297)"><rect class="c" width="49" height="49" rx="24.5"/><rect class="d" x="0.5" y="0.5" width="48" height="48" rx="24"/></g></g></svg> -->
<svg xmlns="http://www.w3.org/2000/svg" width="49" height="49" viewBox="0 0 49 49"><defs><style>.a{fill:#1d8f2b;}.b,.d{fill:none;}.b{stroke:#bcdcc0;}.c{stroke:none;}</style></defs><g transform="translate(-528 -297)"><path class="a" d="M18.512,5.851a1.8,1.8,0,0,0,1.773-1.823,1.771,1.771,0,1,0-3.54,0,1.8,1.8,0,0,0,1.767,1.823Zm1.318.408H17.246l-4.4-4.529a.881.881,0,0,0-1.277-.03.947.947,0,0,0-.034,1.314l4.6,4.739V23.457a.995.995,0,1,0,1.988,0V14.939h.8l.006,8.519a.995.995,0,1,0,1.988,0l-.006-15.7,4.6-4.739A.948.948,0,0,0,25.48,1.7a.88.88,0,0,0-1.277.03L19.83,6.259ZM10.47,13.187a1.428,1.428,0,0,0-1.043-.45h-3.7a1.407,1.407,0,0,0-1.038.45L.97,17.009A.948.948,0,0,0,1,18.323a.885.885,0,0,0,1.277-.03l2.88-2.963v3.959H1.927a1.087,1.087,0,0,0-1.074,1.1,1.1,1.1,0,0,0,.327.8l3.639,3.743a1.071,1.071,0,0,0,1.453.342,1.14,1.14,0,0,0,.4-1.541L4.6,21.61l.041.006H10.6l-2.082,2.13a1.151,1.151,0,0,0,.4,1.541,1.078,1.078,0,0,0,1.459-.341L14.015,21.2a1.106,1.106,0,0,0,.327-.8,1.085,1.085,0,0,0-1.073-1.1H10.044V15.377L12.872,18.3a.884.884,0,0,0,1.277.03.947.947,0,0,0,.03-1.313L10.47,13.187Zm-2.857-.84A1.818,1.818,0,1,0,5.845,10.53,1.79,1.79,0,0,0,7.613,12.347Z" transform="translate(540.206 307.56)"/><g class="b" transform="translate(528 297)"></g></g></svg>