<svg xmlns="http://www.w3.org/2000/svg" width="19.033" height="16.06" viewBox="0 0 19.033 16.06">
  <path id="Icon_awesome-tasks" data-name="Icon awesome-tasks" d="M5.19,2.379a.446.446,0,0,0-.632,0L2.191,4.733,1.347,3.91a.446.446,0,0,0-.632,0l-.584.584a.446.446,0,0,0,0,.632L1.9,6.889a.475.475,0,0,0,.655,0l.58-.581L5.818,3.624a.449.449,0,0,0,0-.632Zm0,5.918a.446.446,0,0,0-.632,0L2.191,10.665l-.844-.822a.446.446,0,0,0-.632,0l-.584.583a.446.446,0,0,0,0,.632L1.9,12.825a.475.475,0,0,0,.654,0l.584-.583L5.818,9.557a.446.446,0,0,0,0-.628ZM2.379,14.739a1.784,1.784,0,1,0,0,3.569,1.784,1.784,0,1,0,0-3.569Zm16.059.595H7.732a.6.6,0,0,0-.595.595v1.19a.6.6,0,0,0,.595.595H18.438a.6.6,0,0,0,.595-.595v-1.19A.6.6,0,0,0,18.438,15.334Zm0-11.9H7.732a.6.6,0,0,0-.595.595v1.19a.6.6,0,0,0,.595.595H18.438a.6.6,0,0,0,.595-.595V4.033A.6.6,0,0,0,18.438,3.439Zm0,5.948H7.732a.6.6,0,0,0-.595.595v1.19a.6.6,0,0,0,.595.595H18.438a.6.6,0,0,0,.595-.595V9.981A.6.6,0,0,0,18.438,9.386Z" transform="translate(0 -2.248)" fill="#fff"/>
</svg>
