<svg xmlns="http://www.w3.org/2000/svg" width="10.104" height="13.472" viewBox="0 0 10.104 13.472"><defs><style>.a{fill:#c7c7c7;}</style></defs><path class="a" d="M8.841,1.684H6.736a1.684,1.684,0,1,0-3.368,0H1.263A1.263,1.263,0,0,0,0,2.947v9.262a1.263,1.263,0,0,0,1.263,1.263H8.841A1.263,1.263,0,0,0,10.1,12.209V2.947A1.263,1.263,0,0,0,8.841,1.684ZM5.052,1.053a.632.632,0,1,1-.632.632A.63.63,0,0,1,5.052,1.053Zm2.526,8a.211.211,0,0,1-.211.211H5.894v1.474a.211.211,0,0,1-.211.211H4.421a.211.211,0,0,1-.211-.211V9.262H2.737a.211.211,0,0,1-.211-.211V7.789a.211.211,0,0,1,.211-.211H4.21V6.1a.211.211,0,0,1,.211-.211H5.684a.211.211,0,0,1,.211.211V7.578H7.368a.211.211,0,0,1,.211.211ZM7.578,4a.211.211,0,0,1-.211.211H2.737A.211.211,0,0,1,2.526,4V3.579a.211.211,0,0,1,.211-.211H7.368a.211.211,0,0,1,.211.211Z"/></svg>