<svg xmlns="http://www.w3.org/2000/svg" width="12.57" height="9.803" viewBox="0 0 12.57 9.803">
  <path id="Icon_map-lawyer" data-name="Icon map-lawyer" d="M.074,9.74a1.623,1.623,0,0,0,3.219,0Zm8.771,3.268a.251.251,0,0,1-.251.252H3.9a.251.251,0,1,1,0-.5h4.69A.25.25,0,0,1,8.845,13.008Zm-5.165.381H8.818v.726H3.68Zm5.6-3.649a1.623,1.623,0,0,0,3.218,0Zm3.13-.505L11.089,7.419h.7a.313.313,0,0,0,0-.626H8.06A1.849,1.849,0,0,0,6.644,5.6v-.98a.312.312,0,0,0-.313-.313l-.029,0-.029,0a.312.312,0,0,0-.313.313V5.6a1.847,1.847,0,0,0-1.416,1.19H.811a.313.313,0,0,0,0,.626h.673L.165,9.234H0v.335H3.368V9.234H3.2L1.885,7.419H4.944a1.325,1.325,0,0,1,.018-.207.3.3,0,0,0,.018-.1,1.336,1.336,0,0,1,.979-.989V9.57H5.947A3.8,3.8,0,0,1,4.39,12.63H8.215A3.807,3.807,0,0,1,6.656,9.57H6.644V6.127a1.336,1.336,0,0,1,.979.989.318.318,0,0,0,.019.1,1.394,1.394,0,0,1,.016.207h3.027L9.367,9.234H9.2V9.57H12.57V9.234Zm-10.857,0H.5L1.55,7.785V9.234Zm.269,0V7.785L2.871,9.234H1.819Zm8.933,0H9.7l1.053-1.449Zm.268,0V7.785l1.053,1.449ZM2,6.356a.312.312,0,1,1-.312-.313A.313.313,0,0,1,2,6.356Zm9.2-.017a.313.313,0,1,1-.152-.281A.311.311,0,0,1,11.2,6.34Z" transform="translate(0 -4.311)" fill="#ffffff"/>
</svg>
