<svg xmlns="http://www.w3.org/2000/svg" width="12.5" height="10" viewBox="0 0 12.5 10"><defs><style>.a{fill:#c7c7c7;}</style></defs><path class="a" d="M11.423,8.363l-.293-.732-.519-1.3A2.9,2.9,0,0,0,7.9,4.5H4.6A2.9,2.9,0,0,0,1.888,6.333l-.519,1.3-.293.732A1.663,1.663,0,0,0,0,9.917v1.25a1.653,1.653,0,0,0,.417,1.092v1.408a.833.833,0,0,0,.833.833h.833a.833.833,0,0,0,.833-.833v-.833H9.583v.833a.833.833,0,0,0,.833.833h.833a.833.833,0,0,0,.833-.833V12.259a1.652,1.652,0,0,0,.417-1.092V9.917A1.663,1.663,0,0,0,11.423,8.363ZM3.436,6.952A1.25,1.25,0,0,1,4.6,6.167H7.9a1.25,1.25,0,0,1,1.161.786l.519,1.3H2.917l.519-1.3ZM2.083,11.161a.831.831,0,1,1,0-1.661,1.6,1.6,0,0,1,1.25,1.246C3.333,11.245,2.583,11.161,2.083,11.161Zm8.333,0c-.5,0-1.25.083-1.25-.415A1.6,1.6,0,0,1,10.417,9.5a.831.831,0,1,1,0,1.661Z" transform="translate(0 -4.5)"/></svg>