<svg xmlns="http://www.w3.org/2000/svg" width="23.187" height="20.611" viewBox="0 0 10.427 11.917"><defs><style>.a{fill:#c32424;}</style></defs><path class="a" d="M6.7,3.165V0H2.048A.557.557,0,0,0,1.49.559v5.4H.186A.187.187,0,0,0,0,6.144v.372A.187.187,0,0,0,.186,6.7H3.466a.19.19,0,0,1,.168.1l.463.926L5.418,5.085a.186.186,0,0,1,.333,0L6.559,6.7H8.193a.372.372,0,1,1,0,.745H6.1L5.586,6.419,4.264,9.065a.186.186,0,0,1-.333,0l-.81-1.618H1.49v3.91a.557.557,0,0,0,.559.559h7.82a.557.557,0,0,0,.559-.559V3.724H7.262A.56.56,0,0,1,6.7,3.165Zm3.561-.722L7.986.163A.558.558,0,0,0,7.59,0H7.448V2.979h2.979V2.837A.557.557,0,0,0,10.264,2.444Z"/></svg>