<svg xmlns="http://www.w3.org/2000/svg" width="23.187" height="20.611" viewBox="0 0 11.994 10.662"><defs><style>.a{fill:#662e9d;}</style></defs><path class="a" d="M11.328,2H8.663V.666A.666.666,0,0,0,8,0H4a.666.666,0,0,0-.666.666V2H.666A.666.666,0,0,0,0,2.665v7.663a.334.334,0,0,0,.333.333H11.661a.334.334,0,0,0,.333-.333V2.665A.666.666,0,0,0,11.328,2Zm-8,7.08a.251.251,0,0,1-.25.25H2.249A.251.251,0,0,1,2,9.079V8.246A.251.251,0,0,1,2.249,8h.833a.251.251,0,0,1,.25.25Zm0-2.665a.251.251,0,0,1-.25.25H2.249A.251.251,0,0,1,2,6.414V5.581a.251.251,0,0,1,.25-.25h.833a.251.251,0,0,1,.25.25ZM6.663,9.079a.251.251,0,0,1-.25.25H5.581a.251.251,0,0,1-.25-.25V8.246A.251.251,0,0,1,5.581,8h.833a.251.251,0,0,1,.25.25Zm0-2.665a.251.251,0,0,1-.25.25H5.581a.251.251,0,0,1-.25-.25V5.581a.251.251,0,0,1,.25-.25h.833a.251.251,0,0,1,.25.25ZM7,2.874A.125.125,0,0,1,6.872,3H6.33V3.54a.125.125,0,0,1-.125.125H5.789a.125.125,0,0,1-.125-.125V3H5.123A.125.125,0,0,1,5,2.874V2.457a.125.125,0,0,1,.125-.125h.541V1.791a.125.125,0,0,1,.125-.125h.416a.125.125,0,0,1,.125.125v.541h.541A.125.125,0,0,1,7,2.457Zm3,6.205a.251.251,0,0,1-.25.25H8.912a.251.251,0,0,1-.25-.25V8.246A.251.251,0,0,1,8.912,8h.833a.251.251,0,0,1,.25.25Zm0-2.665a.251.251,0,0,1-.25.25H8.912a.251.251,0,0,1-.25-.25V5.581a.251.251,0,0,1,.25-.25h.833a.251.251,0,0,1,.25.25Z"/></svg>