<svg xmlns="http://www.w3.org/2000/svg" width="18.646" height="24.861" viewBox="0 0 18.646 24.861">
  <path id="Icon_awesome-notes-medical" data-name="Icon awesome-notes-medical" d="M16.315,3.108H12.431a3.108,3.108,0,1,0-6.215,0H2.331A2.331,2.331,0,0,0,0,5.438V22.531a2.331,2.331,0,0,0,2.331,2.331H16.315a2.331,2.331,0,0,0,2.331-2.331V5.438A2.331,2.331,0,0,0,16.315,3.108ZM9.323,1.942A1.165,1.165,0,1,1,8.158,3.108,1.163,1.163,0,0,1,9.323,1.942ZM13.985,16.7a.39.39,0,0,1-.388.388H10.877v2.719a.39.39,0,0,1-.388.388H8.158a.39.39,0,0,1-.388-.388V17.092H5.05a.39.39,0,0,1-.388-.388V14.373a.39.39,0,0,1,.388-.388H7.769V11.265a.39.39,0,0,1,.388-.388h2.331a.39.39,0,0,1,.388.388v2.719H13.6a.39.39,0,0,1,.388.388Zm0-9.323a.39.39,0,0,1-.388.388H5.05a.39.39,0,0,1-.388-.388V6.6a.39.39,0,0,1,.388-.388H13.6a.39.39,0,0,1,.388.388Z"/>
</svg>
