<svg xmlns="http://www.w3.org/2000/svg" width="6.591" height="11.648" viewBox="0 0 6.591 11.648">
  <path id="Icon_metro-money" data-name="Icon metro-money" d="M14.237,11.539c-1.469-.382-1.941-.773-1.941-1.388,0-.705.65-1.2,1.747-1.2,1.152,0,1.579.55,1.618,1.359h1.43a2.576,2.576,0,0,0-2.077-2.466V6.427H13.072v1.4a2.525,2.525,0,0,0-2.265,2.336c0,1.495,1.239,2.239,3.041,2.673,1.621.388,1.941.954,1.941,1.563,0,.443-.314,1.155-1.747,1.155-1.333,0-1.86-.6-1.928-1.359H10.688a2.717,2.717,0,0,0,2.385,2.478v1.4h1.941V16.684c1.259-.243,2.265-.971,2.265-2.3,0-1.831-1.572-2.459-3.041-2.844Z" transform="translate(-10.688 -6.427)" fill="#595959"/>
</svg>
