<svg xmlns="http://www.w3.org/2000/svg" width="12.41" height="14.183" viewBox="0 0 12.41 14.183">
  <path id="Icon_awesome-user-injured" data-name="Icon awesome-user-injured" d="M7.683.332A3.519,3.519,0,0,0,2.922,2.216H5.171Zm1.8,1.884A3.537,3.537,0,0,0,8.477.844L6.648,2.216ZM6.2,7.091A3.546,3.546,0,0,0,9.751,3.546,3.542,3.542,0,0,0,9.706,3.1h-7a3.491,3.491,0,0,0-.045.443A3.546,3.546,0,0,0,6.2,7.091ZM2.216,8.3v5.881H5.769L3.042,8.046a3.68,3.68,0,0,0-.826.255ZM0,12.853a1.33,1.33,0,0,0,1.33,1.33V8.871A3.7,3.7,0,0,0,0,11.7Zm7.091-1.33H5.557l1.182,2.659h.352a1.33,1.33,0,0,0,0-2.659Zm1.6-3.546H8.224a4.821,4.821,0,0,1-4.038,0h-.2l1.182,2.659H7.091a2.219,2.219,0,0,1,2.216,2.216,2.195,2.195,0,0,1-.455,1.33H11.08a1.33,1.33,0,0,0,1.33-1.33V11.7A3.723,3.723,0,0,0,8.687,7.978Z" fill="#29659a"/>
</svg>
