<svg xmlns="http://www.w3.org/2000/svg" width="11.978" height="12.601" viewBox="0 0 11.978 12.601"><defs><style>.a{fill:#c7c7c7;}</style></defs><g transform="translate(-9.824 0)"><g transform="translate(20.633 3.71)"><path class="a" d="M350.825,117.05v1.572l1-.742Z" transform="translate(-350.825 -117.05)"/></g><g transform="translate(14.804 0)"><g transform="translate(0 0)"><path class="a" d="M168.542.22a.952.952,0,0,0-1.214,0l-.4.342h2.025Z" transform="translate(-166.925 0)"/></g></g><g transform="translate(9.824 5.184)"><g transform="translate(0)"><path class="a" d="M16.76,167.319a1.554,1.554,0,0,1-.941.311,1.584,1.584,0,0,1-.945-.311L9.824,163.55v6.463a.948.948,0,0,0,.941.954h10.1a.948.948,0,0,0,.941-.954V163.55Z" transform="translate(-9.824 -163.55)"/></g></g><g transform="translate(9.999 3.738)"><g transform="translate(0)"><path class="a" d="M15.325,118.752l.967.72V117.95Z" transform="translate(-15.325 -117.95)"/></g></g><g transform="translate(11.599 1.193)"><path class="a" d="M65.825,37.65v4.539L69.47,44.9a.975.975,0,0,0,1.144,0l3.61-2.691V37.65Zm2.25,2.536h1.712a.317.317,0,1,1,0,.634H68.075a.317.317,0,0,1,0-.634Zm3.93,2.219h-3.93a.317.317,0,1,1,0-.634h3.93a.317.317,0,0,1,0,.634Z" transform="translate(-65.825 -37.65)"/></g></g></svg>