<svg xmlns="http://www.w3.org/2000/svg" width="12.105" height="16.141" viewBox="0 0 12.105 16.141">
  <path id="Icon_awesome-file-invoice-dollar" data-name="Icon awesome-file-invoice-dollar" d="M11.885,3.31,8.8.221A.756.756,0,0,0,8.263,0H8.07V4.035h4.035V3.843A.754.754,0,0,0,11.885,3.31Zm-4.823.977V0H.757A.755.755,0,0,0,0,.757V15.384a.755.755,0,0,0,.757.757H11.349a.755.755,0,0,0,.757-.757V5.044H7.818A.759.759,0,0,1,7.062,4.287ZM2.018,2.27a.252.252,0,0,1,.252-.252H4.792a.252.252,0,0,1,.252.252v.5a.252.252,0,0,1-.252.252H2.27a.252.252,0,0,1-.252-.252Zm0,2.522v-.5a.252.252,0,0,1,.252-.252H4.792a.252.252,0,0,1,.252.252v.5a.252.252,0,0,1-.252.252H2.27A.252.252,0,0,1,2.018,4.792Zm4.54,8.319v.76a.252.252,0,0,1-.252.252H5.8a.252.252,0,0,1-.252-.252v-.766a1.805,1.805,0,0,1-.989-.358.253.253,0,0,1-.018-.383l.37-.353a.259.259,0,0,1,.319-.023.759.759,0,0,0,.4.117h.886a.4.4,0,0,0,.372-.416.412.412,0,0,0-.276-.4L5.2,10.863a1.427,1.427,0,0,1-1-1.368A1.4,1.4,0,0,1,5.548,8.074v-.76A.252.252,0,0,1,5.8,7.062h.5a.252.252,0,0,1,.252.252v.766a1.8,1.8,0,0,1,.989.358.253.253,0,0,1,.018.383l-.37.353a.259.259,0,0,1-.319.023.756.756,0,0,0-.4-.117H5.584a.4.4,0,0,0-.372.416.412.412,0,0,0,.276.4l1.419.426a1.427,1.427,0,0,1,1,1.368A1.4,1.4,0,0,1,6.557,13.11Z" fill="#2794b0"/>
</svg>
