<svg xmlns="http://www.w3.org/2000/svg" width="18.56" height="14.475" viewBox="0 0 18.56 14.475">
  <path id="Icon_map-lawyer" data-name="Icon map-lawyer" d="M.11,12.326a2.4,2.4,0,0,0,4.753,0Zm12.95,4.825a.371.371,0,0,1-.37.372H5.764a.37.37,0,1,1,0-.741h6.925A.37.37,0,0,1,13.06,17.152Zm-7.626.562h7.586v1.072H5.433ZM13.7,12.326a2.4,2.4,0,0,0,4.752,0Zm4.621-.746L16.372,8.9h1.04a.462.462,0,0,0,0-.924H11.9A2.729,2.729,0,0,0,9.81,6.22V4.773a.461.461,0,0,0-.462-.463l-.043,0-.043,0a.46.46,0,0,0-.461.463V6.219A2.728,2.728,0,0,0,6.709,7.975H1.2a.462.462,0,0,0,0,.924H2.19L.243,11.58H0v.5H4.973v-.5H4.729L2.783,8.9H7.3a1.957,1.957,0,0,1,.027-.306.436.436,0,0,0,.027-.142A1.973,1.973,0,0,1,8.8,6.992v5.084H8.781a5.614,5.614,0,0,1-2.3,4.517h5.647a5.621,5.621,0,0,1-2.3-4.517H9.81V6.992a1.973,1.973,0,0,1,1.445,1.46.469.469,0,0,0,.028.142,2.058,2.058,0,0,1,.024.306h4.47l-1.947,2.681h-.243v.5H18.56v-.5Zm-16.03,0H.735l1.553-2.14v2.14Zm.4,0V9.441l1.553,2.14H2.686Zm13.189,0H14.321l1.554-2.14Zm.4,0V9.441l1.555,2.14ZM2.948,7.331a.461.461,0,1,1-.46-.463.461.461,0,0,1,.46.463Zm13.587-.024a.461.461,0,1,1-.225-.415A.459.459,0,0,1,16.535,7.307Z" transform="translate(0 -4.311)" fill="#2794b0"/>
</svg>
