<svg id="استشارة_طبية" data-name="استشارة طبية" xmlns="http://www.w3.org/2000/svg" width="84" height="40.594" viewBox="0 0 84 40.594">
  <text id="استشارة_طبية-2" data-name="استشارة طبية" transform="translate(42 35.594)" fill="#fff" font-size="14" font-family="SegoeUI, Segoe UI"><tspan x="-39.324" y="0">استشارة طبية</tspan></text>
  <g id="file_copy" transform="translate(32)">
    <path id="Path_320" data-name="Path 320" d="M0,0H19.445V19.445H0Z" fill="none"/>
    <path id="Icon_awesome-user-md" data-name="Icon awesome-user-md" d="M8.927,10.2a5.1,5.1,0,1,0-5.1-5.1A5.1,5.1,0,0,0,8.927,10.2ZM4.145,16.9a.956.956,0,1,0,.956-.956A.954.954,0,0,0,4.145,16.9Zm8.608-5.4v1.953A3.193,3.193,0,0,1,15.3,16.578V18.24a.64.64,0,0,1-.514.626l-1.283.255a.317.317,0,0,1-.375-.251l-.124-.626a.315.315,0,0,1,.251-.375l.769-.155V16.578a1.913,1.913,0,1,0-3.826.076v1.064l.769.155a.323.323,0,0,1,.251.375l-.124.626a.323.323,0,0,1-.375.251l-1.243-.167a.637.637,0,0,1-.55-.634V16.578a3.2,3.2,0,0,1,2.551-3.124v-1.8c-.088.028-.175.044-.263.076a6.894,6.894,0,0,1-4.575,0,4.4,4.4,0,0,0-.9-.207v3.252a2.232,2.232,0,1,1-1.275,0v-3.2A5.342,5.342,0,0,0,0,16.833v1.785A1.788,1.788,0,0,0,1.785,20.4H16.068a1.788,1.788,0,0,0,1.785-1.785V16.833A5.348,5.348,0,0,0,12.753,11.5Z" transform="translate(0.796 0.137)" fill="#fff"/>
  </g>
</svg>
