<svg xmlns="http://www.w3.org/2000/svg" width="23.187" height="20.611" viewBox="0 0 14.938 14.316"><defs><style>.a{fill:#fff;}</style></defs><path class="a" d="M11.333,4.071a1.086,1.086,0,1,0-1.054-1.088,1.072,1.072,0,0,0,1.054,1.088Zm.786.243H10.578l-2.626-2.7a.525.525,0,0,0-.762-.018.565.565,0,0,0-.021.784L9.914,5.2v9.368a.593.593,0,1,0,1.186,0V9.492h.48l0,5.082a.593.593,0,1,0,1.186,0l0-9.368,2.745-2.827A.565.565,0,0,0,15.49,1.6a.525.525,0,0,0-.762.018l-2.609,2.7ZM6.536,8.447a.852.852,0,0,0-.622-.268H3.7a.839.839,0,0,0-.619.268L.869,10.727a.565.565,0,0,0,.018.784.528.528,0,0,0,.762-.018L3.367,9.725v2.362H1.44a.648.648,0,0,0-.64.659.657.657,0,0,0,.2.48l2.17,2.233a.639.639,0,0,0,.866.2.68.68,0,0,0,.24-.919L3.033,13.471l.024,0H6.612l-1.242,1.27a.687.687,0,0,0,.24.919.643.643,0,0,0,.87-.2l2.17-2.233a.66.66,0,0,0,.195-.48.647.647,0,0,0-.64-.658H6.282V9.753L7.969,11.5a.527.527,0,0,0,.762.018.565.565,0,0,0,.018-.783L6.536,8.447Zm-1.7-.5A1.085,1.085,0,1,0,3.777,6.862,1.068,1.068,0,0,0,4.832,7.946Z" transform="translate(-0.72 -1.44)"/></svg>