
<svg xmlns="http://www.w3.org/2000/svg" width="11.251" height="12.858" viewBox="0 0 11.251 12.858"><defs><style>.a{fill:#fff;}</style></defs><path class="a" d="M11.251,12.356v.5H0v-.5a.3.3,0,0,1,.3-.3H.8V3.014a.6.6,0,0,1,.6-.6h2.21V.6a.6.6,0,0,1,.6-.6H7.032a.6.6,0,0,1,.6.6V2.411h2.21a.6.6,0,0,1,.6.6v9.041h.5A.3.3,0,0,1,11.251,12.356ZM7.735,4.822h-1a.3.3,0,0,0-.3.3v1a.3.3,0,0,0,.3.3h1a.3.3,0,0,0,.3-.3v-1A.3.3,0,0,0,7.735,4.822ZM3.516,6.429h1a.3.3,0,0,0,.3-.3v-1a.3.3,0,0,0-.3-.3h-1a.3.3,0,0,0-.3.3v1A.3.3,0,0,0,3.516,6.429ZM6.128,9.644h-1a.3.3,0,0,0-.3.3v2.11H6.429V9.945A.3.3,0,0,0,6.128,9.644ZM7.735,7.233h-1a.3.3,0,0,0-.3.3v1a.3.3,0,0,0,.3.3h1a.3.3,0,0,0,.3-.3v-1A.3.3,0,0,0,7.735,7.233Zm-2.913.3a.3.3,0,0,0-.3-.3h-1a.3.3,0,0,0-.3.3v1a.3.3,0,0,0,.3.3h1a.3.3,0,0,0,.3-.3ZM4.571,2.411h.653v.653a.151.151,0,0,0,.151.151h.5a.151.151,0,0,0,.151-.151V2.411H6.68a.151.151,0,0,0,.151-.151v-.5a.151.151,0,0,0-.151-.151H6.027V.954A.151.151,0,0,0,5.877.8h-.5a.151.151,0,0,0-.151.151v.653H4.571a.151.151,0,0,0-.151.151v.5A.151.151,0,0,0,4.571,2.411Z"/></svg>