<svg xmlns="http://www.w3.org/2000/svg" width="17.843" height="17.843" viewBox="0 0 17.843 17.843">
  <g id="notification" transform="translate(0 0)">
    <path id="notification-2" data-name="notification" d="M129.127,112a.677.677,0,0,0-.259.051l-12.854,5.165h-3.657a.364.364,0,0,0-.357.37v6.668a.364.364,0,0,0,.357.37h2.266a2.676,2.676,0,1,0,5.136,1.505l9.112,3.662a.708.708,0,0,0,.972-.689V112.74A.731.731,0,0,0,129.127,112Zm-11.953,14.5a1.068,1.068,0,0,1-1.07-1.066,1.055,1.055,0,0,1,.245-.678l1.893.76A1.073,1.073,0,0,1,117.174,126.5Z" transform="translate(-112 -112)" fill="#fff"/>
  </g>
</svg>
