<svg xmlns="http://www.w3.org/2000/svg" width="15.491" height="10.844" viewBox="0 0 15.491 10.844">
  <path id="Icon_awesome-users" data-name="Icon awesome-users" d="M2.324,6.9A1.549,1.549,0,1,0,.775,5.348,1.551,1.551,0,0,0,2.324,6.9Zm10.844,0a1.549,1.549,0,1,0-1.549-1.549A1.551,1.551,0,0,0,13.167,6.9Zm.775.775H12.393a1.545,1.545,0,0,0-1.092.45,3.54,3.54,0,0,1,1.818,2.648h1.6A.774.774,0,0,0,15.491,10V9.221A1.551,1.551,0,0,0,13.942,7.672Zm-6.2,0A2.711,2.711,0,1,0,5.035,4.961,2.71,2.71,0,0,0,7.746,7.672ZM9.6,8.446H9.4a3.743,3.743,0,0,1-3.316,0h-.2A2.789,2.789,0,0,0,3.1,11.235v.7A1.162,1.162,0,0,0,4.26,13.094h6.971a1.162,1.162,0,0,0,1.162-1.162v-.7A2.789,2.789,0,0,0,9.6,8.446ZM4.19,8.122A1.545,1.545,0,0,0,3.1,7.672H1.549A1.551,1.551,0,0,0,0,9.221V10a.774.774,0,0,0,.775.775h1.6A3.549,3.549,0,0,1,4.19,8.122Z" transform="translate(0 -2.25)" fill="#595959"/>
</svg>
