<svg xmlns="http://www.w3.org/2000/svg" width="13.451" height="13.451" viewBox="0 0 13.451 13.451">
  <path id="Icon_awesome-print" data-name="Icon awesome-print" d="M11.77,5.044V2.029a.841.841,0,0,0-.246-.595L10.335.246A.841.841,0,0,0,9.74,0H2.522a.841.841,0,0,0-.841.841v4.2A1.681,1.681,0,0,0,0,6.726V9.668a.42.42,0,0,0,.42.42H1.681V12.61a.841.841,0,0,0,.841.841h8.407a.841.841,0,0,0,.841-.841V10.088h1.261a.42.42,0,0,0,.42-.42V6.726A1.681,1.681,0,0,0,11.77,5.044ZM10.088,11.77H3.363V9.248h6.726Zm0-5.885H3.363v-4.2H8.407V2.942a.42.42,0,0,0,.42.42h1.261Zm1.261,1.892a.631.631,0,1,1,.631-.631A.631.631,0,0,1,11.349,7.776Z" fill="#2794b0"/>
</svg>
