<svg xmlns="http://www.w3.org/2000/svg" width="37.738" height="37.738" viewBox="0 0 37.738 37.738"><defs><style>.a{fill:#ced1d4;}</style></defs><g transform="translate(17.297 17.297)"><path class="a" d="M21.221,31.441A10.221,10.221,0,1,1,31.441,21.221,10.232,10.232,0,0,1,21.221,31.441Zm0-18.869a8.648,8.648,0,1,0,8.648,8.648A8.658,8.658,0,0,0,21.221,12.572Z" transform="translate(-11 -11)"/></g><g transform="translate(20.071 20.073)"><path class="a" d="M13.551,27.655a.785.785,0,0,1-.557-1.341L26.315,13a.786.786,0,0,1,1.112,1.112L14.106,27.426A.783.783,0,0,1,13.551,27.655Z" transform="translate(-12.765 -12.766)"/></g><g transform="translate(4.717 22.014)"><path class="a" d="M13.221,15.572H3.786a.786.786,0,1,1,0-1.572h9.434a.786.786,0,1,1,0,1.572Z" transform="translate(-3 -14)"/></g><g transform="translate(4.717 26.731)"><path class="a" d="M11.648,18.572H3.786a.786.786,0,0,1,0-1.572h7.862a.786.786,0,1,1,0,1.572Z" transform="translate(-3 -17)"/></g><g transform="translate(10.221 4.717)"><path class="a" d="M9.645,9.29A3.145,3.145,0,1,1,12.79,6.145,3.148,3.148,0,0,1,9.645,9.29Zm0-4.717a1.572,1.572,0,1,0,1.572,1.572A1.574,1.574,0,0,0,9.645,4.572Z" transform="translate(-6.5 -3)"/></g><g transform="translate(7.076 12.579)"><path class="a" d="M16.293,14.29a.786.786,0,0,1-.786-.786V11.931a2.362,2.362,0,0,0-2.359-2.359H8.431a2.361,2.361,0,0,0-2.359,2.359V13.5a.786.786,0,1,1-1.572,0V11.931A3.935,3.935,0,0,1,8.431,8h4.717a3.935,3.935,0,0,1,3.931,3.931V13.5A.786.786,0,0,1,16.293,14.29Z" transform="translate(-4.5 -8)"/></g><path class="a" d="M14.938,33.021H3.931A3.935,3.935,0,0,1,0,29.09V3.931A3.935,3.935,0,0,1,3.931,0H22.8a3.935,3.935,0,0,1,3.931,3.931V13.46a.786.786,0,0,1-1.572,0V3.931A2.361,2.361,0,0,0,22.8,1.572H3.931A2.361,2.361,0,0,0,1.572,3.931V29.09a2.361,2.361,0,0,0,2.359,2.359H14.938a.786.786,0,1,1,0,1.572Z" transform="translate(0)"/></svg>