<svg xmlns="http://www.w3.org/2000/svg" width="18.524" height="19.558" viewBox="0 0 18.524 19.558">
  <path id="setting" d="M97.875,72.166a2.448,2.448,0,1,0,1.729.717A2.425,2.425,0,0,0,97.875,72.166Zm9.012,5.148-1.43-1.222a7.793,7.793,0,0,0,0-2.523l1.43-1.222a.7.7,0,0,0,.2-.769l-.02-.057a9.672,9.672,0,0,0-1.74-3.01l-.039-.046a.7.7,0,0,0-.767-.208l-1.775.632a7.633,7.633,0,0,0-2.177-1.257l-.343-1.856a.7.7,0,0,0-.564-.562l-.059-.011a9.85,9.85,0,0,0-3.471,0l-.059.011a.7.7,0,0,0-.564.562l-.345,1.865A7.726,7.726,0,0,0,93,68.894l-1.788-.636a.7.7,0,0,0-.767.208l-.039.046a9.747,9.747,0,0,0-1.74,3.01l-.02.057a.7.7,0,0,0,.2.769L90.3,73.582a7.685,7.685,0,0,0-.1,1.246,7.606,7.606,0,0,0,.1,1.246l-1.443,1.235a.7.7,0,0,0-.2.769l.02.057a9.7,9.7,0,0,0,1.74,3.01l.039.046a.7.7,0,0,0,.767.208l1.788-.636a7.569,7.569,0,0,0,2.162,1.253l.345,1.865a.7.7,0,0,0,.564.562l.059.011a9.8,9.8,0,0,0,3.471,0l.059-.011a.7.7,0,0,0,.564-.562l.343-1.856a7.685,7.685,0,0,0,2.177-1.257l1.775.632a.7.7,0,0,0,.767-.208l.039-.046a9.747,9.747,0,0,0,1.74-3.01l.02-.057A.706.706,0,0,0,106.887,77.314Zm-9.012,1.141a3.843,3.843,0,1,1,3.843-3.843A3.843,3.843,0,0,1,97.875,78.455Z" transform="translate(-88.609 -65.05)" fill="#fff"/>
</svg>
