<svg xmlns="http://www.w3.org/2000/svg" width="10.008" height="13.344" viewBox="0 0 10.008 13.344"><defs><style>.a{fill:#c7c7c7;}</style></defs><g transform="translate(-64)"><g transform="translate(66.502)"><path class="a" d="M164.587.834h-.906a1.251,1.251,0,0,0-2.359,0h-.9a.417.417,0,0,0-.417.417V2.919a.417.417,0,0,0,.417.417h4.17A.417.417,0,0,0,165,2.919V1.251A.417.417,0,0,0,164.587.834Z" transform="translate(-160)"/></g><g transform="translate(64 1.668)"><path class="a" d="M73.174,64H72.34v1.251A1.253,1.253,0,0,1,71.089,66.5h-4.17a1.253,1.253,0,0,1-1.251-1.251V64h-.834a.835.835,0,0,0-.834.834V74.842a.825.825,0,0,0,.834.834h8.34a.825.825,0,0,0,.834-.834V64.834A.825.825,0,0,0,73.174,64Zm-4.292,7.384-1.668,1.668a.419.419,0,0,1-.59,0l-.834-.834a.417.417,0,1,1,.59-.59l.54.539,1.373-1.373a.417.417,0,0,1,.59.59Zm0-3.336-1.668,1.668a.419.419,0,0,1-.59,0l-.834-.834a.417.417,0,1,1,.59-.59l.54.539,1.373-1.373a.417.417,0,0,1,.59.59Zm3.041,4.292H70.255a.417.417,0,0,1,0-.834h1.668a.417.417,0,0,1,0,.834Zm0-3.336H70.255a.417.417,0,0,1,0-.834h1.668a.417.417,0,0,1,0,.834Z" transform="translate(-64 -64)"/></g></g></svg>