<svg xmlns="http://www.w3.org/2000/svg" width="20.219" height="20.218" viewBox="0 0 20.219 20.218"><defs><style>.a{fill:#2a3e4c;}</style></defs><g transform="translate(0 0)"><path class="a" d="M2.616,72.389a2.616,2.616,0,1,0,2.616,2.617A2.62,2.62,0,0,0,2.616,72.389Z" transform="translate(0 -57.404)"/><path class="a" d="M.464,36.384a.414.414,0,0,0-.428.414v3.357a.414.414,0,0,0,.4.414,8.456,8.456,0,0,1,8.1,8.1.414.414,0,0,0,.414.395H12.3a.414.414,0,0,0,.414-.427A12.635,12.635,0,0,0,9,40.1,12.636,12.636,0,0,0,.464,36.384Z" transform="translate(-0.029 -28.852)"/><path class="a" d="M14.323,5.926A20.112,20.112,0,0,0,.458,0a.4.4,0,0,0-.3.118.414.414,0,0,0-.124.3V3.772a.414.414,0,0,0,.4.414A16.218,16.218,0,0,1,16.064,19.81a.413.413,0,0,0,.414.4h3.355a.414.414,0,0,0,.414-.423A20.112,20.112,0,0,0,14.323,5.926Z" transform="translate(-0.028 -0.002)"/></g></svg>