<svg id="Layer_6" data-name="Layer 6" xmlns="http://www.w3.org/2000/svg" width="15.155" height="15.583" viewBox="0 0 15.155 15.583">
  <g id="Group_949" data-name="Group 949">
    <path id="Path_329" data-name="Path 329" d="M16.051,6.179a2.09,2.09,0,0,1,1.629-.6,2.692,2.692,0,0,1,1.842.779,2.483,2.483,0,0,1,.354,3.435.744.744,0,0,0,0,1.027.85.85,0,0,0,.5.177.638.638,0,0,0,.5-.213,3.673,3.673,0,0,0,.46-4.356h.248a2.16,2.16,0,0,0,1.594-.673A2.231,2.231,0,0,0,23.1,2.6,2.3,2.3,0,0,0,21.576,2a2.337,2.337,0,0,0-1.629.673A2.231,2.231,0,0,0,19.38,4.55a3.967,3.967,0,0,0-1.665-.39,3.365,3.365,0,0,0-2.692,1.063.708.708,0,1,0,1.027.956Zm4.923-2.515a.85.85,0,0,1,.6-.248.791.791,0,0,1,.567,1.346.673.673,0,0,1-.567.248A.815.815,0,0,1,21.01,4.8a.779.779,0,0,1-.035-1.133Z" transform="translate(-10.456 -2)" fill="#595959"/>
    <path id="Path_330" data-name="Path 330" d="M9.259,26.427A2.471,2.471,0,0,1,7.7,23.345a2.46,2.46,0,0,1,2.8-2.019.708.708,0,0,0,.85-.531.673.673,0,0,0-.5-.85,3.683,3.683,0,0,0-4,1.806,2.231,2.231,0,0,0-1.523-1.275l-.5-.071a2.231,2.231,0,0,0-2.16,1.7A2.2,2.2,0,0,0,4.3,24.8l.531.071a2.2,2.2,0,0,0,1.381-.5A3.719,3.719,0,0,0,8.94,27.808h.142a.708.708,0,0,0,.708-.531.673.673,0,0,0-.531-.85ZM5.611,22.814a.815.815,0,0,1-.779.638H4.619a.808.808,0,0,1,.213-1.594h.177a.744.744,0,0,1,.5.354A.885.885,0,0,1,5.611,22.814Z" transform="translate(-2.6 -13.535)" fill="#595959"/>
    <path id="Path_331" data-name="Path 331" d="M29.209,25.516a4.215,4.215,0,0,0,1.169-1.2,3.471,3.471,0,0,0,.425-2.869.7.7,0,1,0-1.346.39,1.983,1.983,0,0,1-.283,1.7,2.9,2.9,0,0,1-1.594,1.2,2.469,2.469,0,0,1-3.152-1.417.718.718,0,1,0-1.381.39,3.719,3.719,0,0,0,3.577,2.55A2.231,2.231,0,0,0,28.395,29.8a2.019,2.019,0,0,0,.637-.106,2.231,2.231,0,0,0,.177-4.179Zm-.567,2.833h-.248a.85.85,0,0,1-.779-.531.885.885,0,0,1,.567-1.027h.212a.815.815,0,0,1,.779.6A.779.779,0,0,1,28.643,28.349Z" transform="translate(-15.787 -14.218)" fill="#595959"/>
  </g>
</svg>
