<svg xmlns="http://www.w3.org/2000/svg" width="19.998" height="19.998" viewBox="0 0 19.998 19.998"><defs><style>.a{fill:#65b3ad;}.b{fill:#56a49e;opacity:0.37;}.c{fill:#fff;}</style></defs><g transform="translate(0 0)"><g transform="translate(0 0)"><circle class="a" cx="9.999" cy="9.999" r="9.999"/><path class="b" d="M171.514,118.7l-6.254-6.036-2.753-1.24-1.282-1.2-.278,1.624-2.475,1.205,6.576,6.751-3.076,1-3.448-1.055,5.824,5.669A10.018,10.018,0,0,0,171.514,118.7Z" transform="translate(-151.974 -105.701)"/><path class="c" d="M129.4,121.18a4.893,4.893,0,0,0,4.893-4.893h0a4.892,4.892,0,0,0-5.3-4.876l-.336-1.189-1.376,1.414-1.376,1.414,1.913.485,1.913.485-.405-1.433a3.7,3.7,0,1,1-3.309,2.214l-1.094-.479a4.894,4.894,0,0,0,4.482,6.858Z" transform="translate(-119.396 -105.703)"/></g></g></svg>