<svg xmlns="http://www.w3.org/2000/svg" width="18.189" height="12.589" viewBox="0 0 18.189 12.589">
  <g id="Group_1404" data-name="Group 1404" transform="translate(-50.996 -347)">
    <path id="Icon_awesome-money-check" data-name="Icon awesome-money-check" d="M0,12.059a.755.755,0,0,0,.755.755H14.337a.755.755,0,0,0,.755-.755V4.514H0Zm10.564-4.9a.377.377,0,0,1,.377-.377H13.2a.377.377,0,0,1,.377.377v.755a.377.377,0,0,1-.377.377H10.941a.377.377,0,0,1-.377-.377Zm0,2.83a.189.189,0,0,1,.189-.189h2.641a.189.189,0,0,1,.189.189v.377a.189.189,0,0,1-.189.189H10.752a.189.189,0,0,1-.189-.189ZM1.509,7.721A.189.189,0,0,1,1.7,7.532H8.866a.189.189,0,0,1,.189.189V8.1a.189.189,0,0,1-.189.189H1.7A.189.189,0,0,1,1.509,8.1Zm0,2.264A.189.189,0,0,1,1.7,9.8h4.15a.189.189,0,0,1,.189.189v.377a.189.189,0,0,1-.189.189H1.7a.189.189,0,0,1-.189-.189Zm13.2-7.734H.377A.377.377,0,0,0,0,2.627V3.759H15.091V2.627A.377.377,0,0,0,14.714,2.25Z" transform="translate(50.996 344.75)" fill="#2794b0"/>
    <path id="Icon_material-close" data-name="Icon material-close" d="M16.061,8.362,15.2,7.5,11.78,10.918,8.362,7.5,7.5,8.362l3.418,3.418L7.5,15.2l.862.862,3.418-3.418L15.2,16.061l.862-.862L12.642,11.78Z" transform="translate(53.124 343.529)" fill="#ec2227"/>
  </g>
</svg>
