<svg xmlns="http://www.w3.org/2000/svg" width="25.593" height="17.063" viewBox="0 0 25.593 17.063"><defs><style>.a{fill:#f0f0f0;}.b{fill:#d80027;}.c{fill:#0052b4;}</style></defs><g transform="translate(0 -85.33)"><rect class="a" width="25.593" height="17.062" transform="translate(0 85.33)"/><path class="b" d="M14.4,85.33H11.2v6.931H0v3.2H11.2v6.931h3.2V95.461h11.2v-3.2H14.4Z"/><g transform="translate(15.579 96.828)"><path class="c" d="M393.785,315.358l5.909,3.283v-3.283Z" transform="translate(-389.679 -315.358)"/><path class="c" d="M311.652,315.358l10.015,5.564v-1.573l-7.183-3.99Z" transform="translate(-311.652 -315.358)"/><path class="c" d="M319,349.08,311.652,345v4.082Z" transform="translate(-311.652 -343.516)"/></g><path class="a" d="M311.652,315.358l10.015,5.564v-1.573l-7.183-3.99Z" transform="translate(-296.073 -218.53)"/><path class="b" d="M311.652,315.358l10.015,5.564v-1.573l-7.183-3.99Z" transform="translate(-296.073 -218.53)"/><g transform="translate(0 96.828)"><path class="c" d="M4.516,315.356,0,317.865v-2.509Z" transform="translate(0 -315.356)"/><path class="c" d="M34.232,329.51v4.856H25.491Z" transform="translate(-24.217 -328.802)"/></g><path class="b" d="M7.183,315.358,0,319.348v1.573H0l10.015-5.564Z" transform="translate(0 -218.53)"/><g transform="translate(0 85.33)"><path class="c" d="M5.909,134.241,0,130.958v3.283Z" transform="translate(0 -128.677)"/><path class="c" d="M10.015,90.894,0,85.33V86.9l7.183,3.99Z" transform="translate(0 -85.33)"/><path class="c" d="M53.366,85.33l7.347,4.082V85.33Z" transform="translate(-50.698 -85.33)"/></g><path class="a" d="M10.015,90.894,0,85.33V86.9l7.183,3.99Z"/><path class="b" d="M10.015,90.894,0,85.33V86.9l7.183,3.99Z"/><g transform="translate(15.579 85.33)"><path class="c" d="M421.659,148.955l4.516-2.509v2.509Z" transform="translate(-416.16 -143.391)"/><path class="c" d="M311.652,90.187V85.331h8.741Z" transform="translate(-311.652 -85.331)"/></g><path class="b" d="M314.484,90.894l7.183-3.99V85.33h0l-10.015,5.564Z" transform="translate(-296.073)"/></g></svg>