<svg xmlns="http://www.w3.org/2000/svg" width="16.455" height="16.453" viewBox="0 0 16.455 16.453">
  <g id="Group_1408" data-name="Group 1408" transform="translate(-105 -474.018)">
    <path id="Icon_ionic-ios-send" data-name="Icon ionic-ios-send" d="M20.439,4.54,4.707,11.4a.361.361,0,0,0,.013.656l4.256,2.4a.686.686,0,0,0,.784-.077L18.15,7.145c.056-.047.189-.137.24-.086s-.03.184-.077.24l-7.26,8.177a.684.684,0,0,0-.069.819l2.781,4.461a.362.362,0,0,0,.651-.009L20.923,5.015A.361.361,0,0,0,20.439,4.54Z" transform="translate(100.498 469.516)" fill="#f2a916"/>
    <path id="Icon_material-close" data-name="Icon material-close" d="M16.061,8.362,15.2,7.5,11.78,10.918,8.362,7.5,7.5,8.362l3.418,3.418L7.5,15.2l.862.862,3.418-3.418L15.2,16.061l.862-.862L12.642,11.78Z" transform="translate(104.128 472.479)" fill="#ec2227"/>
  </g>
</svg>
