<svg xmlns="http://www.w3.org/2000/svg" width="23.187" height="21.611" viewBox="0 0 13.166 10.533"><defs><style>.a{fill:#fff;}</style></defs><path class="a" d="M4.937,7.9a.329.329,0,1,0,.329.329A.33.33,0,0,0,4.937,7.9Zm3.291.658A.329.329,0,1,0,7.9,8.229.33.33,0,0,0,8.229,8.558ZM12.837,0H.329A.33.33,0,0,0,0,.329V.987a.33.33,0,0,0,.329.329H12.837a.33.33,0,0,0,.329-.329V.329A.33.33,0,0,0,12.837,0Zm0,9.216h-.987V1.975H1.317V9.216H.329A.33.33,0,0,0,0,9.545V10.2a.33.33,0,0,0,.329.329H12.837a.33.33,0,0,0,.329-.329V9.545A.33.33,0,0,0,12.837,9.216ZM9.874,5.1a.165.165,0,0,1-.165.165h-2.8v.658H9.052a.165.165,0,0,1,.165.165v.329a.165.165,0,0,1-.165.165H6.912v.658H8.229a.987.987,0,1,1-.987.987V7.9H5.925v.329a.987.987,0,1,1-.987-.987H6.254V6.583H4.114a.165.165,0,0,1-.165-.165V6.089a.165.165,0,0,1,.165-.165H6.254V5.266h-2.8A.165.165,0,0,1,3.291,5.1V4.773a.165.165,0,0,1,.165-.165h2.8V3.95H4.114a.165.165,0,0,1-.165-.165V3.456a.165.165,0,0,1,.165-.165H6.254V2.8a.165.165,0,0,1,.165-.165h.329a.165.165,0,0,1,.165.165v.494H9.052a.165.165,0,0,1,.165.165v.329a.165.165,0,0,1-.165.165H6.912v.658h2.8a.165.165,0,0,1,.165.165Z"/></svg>